<?xml version="1.0" encoding="UTF-8" standalone="no"?>
<!-- Created with Inkscape (http://www.inkscape.org/) -->

<svg
   xmlns:dc="http://purl.org/dc/elements/1.1/"
   xmlns:cc="http://creativecommons.org/ns#"
   xmlns:rdf="http://www.w3.org/1999/02/22-rdf-syntax-ns#"
   xmlns:svg="http://www.w3.org/2000/svg"
   xmlns="http://www.w3.org/2000/svg"
   xmlns:sodipodi="http://sodipodi.sourceforge.net/DTD/sodipodi-0.dtd"
   xmlns:inkscape="http://www.inkscape.org/namespaces/inkscape"
   width="320mm"
   height="480mm"
   viewBox="0 0 1133.8583 1700.7874"
   id="svg2"
   version="1.1"
   inkscape:version="0.91 r13725"
   sodipodi:docname="T-Shirt-SoimiiPatriei-RR-216-Black-Maneca.svg"
   inkscape:export-filename="D:\Workplace\Desktop\Soimii Patriei\model-fata-black.png"
   inkscape:export-xdpi="300.01205"
   inkscape:export-ydpi="300.01205">
  <defs
     id="defs4">
    <pattern
       patternUnits="userSpaceOnUse"
       width="12.734118"
       height="22.31675"
       patternTransform="translate(128.12242,115.39752)"
       id="pattern5029">
      <path
         inkscape:export-ydpi="300.01205"
         inkscape:export-xdpi="300.01205"
         sodipodi:nodetypes="ccccccccccc"
         inkscape:connector-curvature="0"
         id="path4366"
         d="M 3.2151384,9.2281495 C 1.6237084,10.41802 0.51210842,11.6079 0.24045842,12.79777 c -1.04261,4.40738 1.51983998,6.60796 3.56960998,9.12236 l 3.96625,0.39662 L 12.734118,9.4264595 5.5948784,17.95388 10.056908,9.4264595 l -1.0233196,-1.80784 0.22619,-3.07245 c -2.03341,-7.82865 -8.03417,-4.47298997 -6.24807,1.98306 z"
         style="opacity:0.98000004;fill:#0000a0;fill-opacity:1;fill-rule:evenodd;stroke:none;stroke-width:1px;stroke-linecap:butt;stroke-linejoin:miter;stroke-opacity:1" />
    </pattern>
    <clipPath
       clipPathUnits="userSpaceOnUse"
       id="clipPath5876">
      <g
         id="g5878"
         clip-path="none"
         transform="matrix(0.8,0,0,-0.8,-385.42761,-127.4871)">
        <g
           style="opacity:0.98000004;fill:#0000a0;fill-opacity:1"
           inkscape:export-ydpi="300.01205"
           inkscape:export-xdpi="300.01205"
           transform="matrix(1.25,0,0,-1.25,491.95514,-9.50288)"
           id="g5880">
          <path
             inkscape:connector-curvature="0"
             id="path5882"
             style="fill:#0000a0;fill-opacity:1;fill-rule:nonzero;stroke:none"
             d="m 0,0 c -2.436,-1.634 -5.405,-2.837 -8.909,-3.608 -3.506,-0.773 -7.515,-1.159 -12.028,-1.159 l -5.613,0 0,-21.738 -11.225,0 0,60.851 c 2.612,0.593 5.508,0.994 8.686,1.202 3.177,0.208 6.103,0.312 8.776,0.312 8.968,0 15.843,-1.634 20.625,-4.9 C 5.092,27.693 7.484,22.585 7.484,15.636 7.484,12.012 6.845,8.91 5.568,6.326 4.291,3.742 2.435,1.633 0,0 m 1.917,136.21 -39.007,0 c 0,-103.794 -21.042,-151.034 -21.042,-151.034 l 39.252,-37.987 42.095,37.987 C 0.734,36.557 1.917,136.21 1.917,136.21" />
        </g>
        <g
           style="opacity:0.98000004;fill:#0000a0;fill-opacity:1"
           inkscape:export-ydpi="300.01205"
           inkscape:export-xdpi="300.01205"
           transform="matrix(1.25,0,0,-1.25,481.15251,-39.51638)"
           id="g5884">
          <path
             inkscape:connector-curvature="0"
             id="path5886"
             style="fill:#0000a0;fill-opacity:1;fill-rule:nonzero;stroke:none"
             d="m 0,0 c -1.367,0.771 -2.984,1.321 -4.855,1.648 -1.872,0.326 -3.876,0.49 -6.014,0.49 -2.851,0 -5.198,-0.089 -7.039,-0.267 l 0,-21.026 5.435,0 c 5.404,0 9.562,0.757 12.473,2.272 2.91,1.514 4.366,4.38 4.366,8.597 0,2.019 -0.387,3.712 -1.158,5.079 C 2.435,-1.842 1.366,-0.772 0,0" />
        </g>
      </g>
    </clipPath>
    <pattern
       patternUnits="userSpaceOnUse"
       width="12.734118"
       height="22.31675"
       patternTransform="translate(128.12242,115.39752)"
       id="pattern5029-7">
      <path
         inkscape:export-ydpi="300.01205"
         inkscape:export-xdpi="300.01205"
         sodipodi:nodetypes="ccccccccccc"
         inkscape:connector-curvature="0"
         id="path4366-0"
         d="M 3.2151384,9.2281495 C 1.6237084,10.41802 0.51210842,11.6079 0.24045842,12.79777 c -1.04261,4.40738 1.51983998,6.60796 3.56960998,9.12236 l 3.96625,0.39662 L 12.734118,9.4264595 5.5948784,17.95388 10.056908,9.4264595 l -1.0233196,-1.80784 0.22619,-3.07245 c -2.03341,-7.82865 -8.03417,-4.47298997 -6.24807,1.98306 z"
         style="opacity:0.98000004;fill:#0000a0;fill-opacity:1;fill-rule:evenodd;stroke:none;stroke-width:1px;stroke-linecap:butt;stroke-linejoin:miter;stroke-opacity:1" />
    </pattern>
    <clipPath
       id="clipPath7401"
       clipPathUnits="userSpaceOnUse">
      <path
         inkscape:connector-curvature="0"
         id="path7403"
         d="m 0,396.85 481.89,0 L 481.89,0 0,0 0,396.85 Z" />
    </clipPath>
  </defs>
  <sodipodi:namedview
     id="base"
     pagecolor="#ffffff"
     bordercolor="#666666"
     borderopacity="1.0"
     inkscape:pageopacity="0.0"
     inkscape:pageshadow="2"
     inkscape:zoom="0.49504884"
     inkscape:cx="649.96658"
     inkscape:cy="1129.6518"
     inkscape:document-units="px"
     inkscape:current-layer="g8071"
     showgrid="false"
     inkscape:window-width="1536"
     inkscape:window-height="801"
     inkscape:window-x="1528"
     inkscape:window-y="-8"
     inkscape:window-maximized="1"
     width="320mm"
     borderlayer="false"
     showguides="false" />
  <metadata
     id="metadata7">
    <rdf:RDF>
      <cc:Work
         rdf:about="">
        <dc:format>image/svg+xml</dc:format>
        <dc:type
           rdf:resource="http://purl.org/dc/dcmitype/StillImage" />
        <dc:title />
      </cc:Work>
    </rdf:RDF>
  </metadata>
  <g
     inkscape:groupmode="layer"
     id="layer10"
     inkscape:label="Background - Black"
     style="display:inline"
     sodipodi:insensitive="true">
    <rect
       style="display:inline;opacity:0.98000004;fill:#000000;fill-opacity:1;stroke:#000000;stroke-width:2;stroke-miterlimit:4;stroke-dasharray:8, 2;stroke-dashoffset:0;stroke-opacity:1"
       id="rect4761-1"
       width="1133.8583"
       height="1700.7874"
       x="1"
       y="-0.99995196" />
  </g>
  <g
     style="display:inline;opacity:0.97000002"
     inkscape:label="Black - Maneca"
     id="g8071"
     inkscape:groupmode="layer"
     sodipodi:insensitive="true">
    <g
       transform="translate(4.2748339,-49.190983)"
       id="g8073"
       style="fill:#ffffff;fill-opacity:1;stroke:#ffffff;stroke-opacity:1">
      <path
         style="fill:#ffffff;fill-opacity:1;fill-rule:nonzero;stroke:#ffffff;stroke-width:1.25;stroke-opacity:1"
         d="m 485.98047,746.72852 c -7.82375,25.25125 -25.40875,34.33421 -45.84375,38.69921 l 0,214.93167 c 2.585,29.51 18.31812,37.6595 39.89062,36.3183 0,0 37.87727,-0.6475 49.41602,0 11.53875,0.6475 21.38969,3.0317 33.21094,15.4805 11.82,-12.4475 21.67218,-14.833 33.21093,-15.4805 11.53875,-0.6475 49.41602,0 49.41602,0 21.5725,1.3412 37.30438,-6.8083 39.89063,-36.3183 l 0,-214.93167 c -20.43625,-4.36375 -38.02001,-13.44796 -45.84376,-38.69921 l -153.34765,0 z m 1.45898,2.90234 150.43164,0 c 7.675,24.77125 24.92641,33.68164 44.97266,37.96289 l 0,191.57422 c -2.53625,28.94993 -17.97031,36.94393 -39.13281,35.62893 0,0 -37.15656,-0.635 -48.47656,0 -11.31876,0.6337 -20.98383,2.9723 -32.58008,15.1836 -11.59625,-12.2113 -21.26008,-14.5499 -32.58008,-15.1836 -11.31875,-0.635 -48.47656,0 -48.47656,0 -21.16125,1.315 -36.59461,-6.679 -39.13086,-35.62893 l 0,-191.57422 c 20.04625,-4.28125 37.29765,-13.19164 44.97265,-37.96289 z"
         id="path8075"
         inkscape:connector-curvature="0" />
      <path
         style="fill:#ffffff;fill-opacity:1;fill-rule:nonzero;stroke:#ffffff;stroke-width:1.25;stroke-opacity:1"
         d="m 442.4668,944.12305 0,17.52343 c 2.53625,28.95 17.96961,36.94196 39.13086,35.62696 0,0 37.15781,-0.635 48.47656,0 11.32,0.635 20.98383,2.97496 32.58008,15.18746 11.59625,-12.2125 21.26132,-14.55246 32.58008,-15.18746 11.32,-0.635 48.47656,0 48.47656,0 21.1625,1.315 36.59656,-6.67696 39.13281,-35.62696 l 0,-17.52343 c -2.53625,28.95 -17.97031,36.94515 -39.13281,35.6289 0,0 -37.15656,-0.635 -48.47656,0 -11.31876,0.635 -20.98383,2.9743 -32.58008,15.18555 -11.59625,-12.21125 -21.26008,-14.55055 -32.58008,-15.18555 -11.31875,-0.635 -48.47656,0 -48.47656,0 -21.16125,1.31625 -36.59461,-6.6789 -39.13086,-35.6289 z"
         id="path8077"
         inkscape:connector-curvature="0" />
      <g
         style="display:inline;opacity:0.97000002;fill:#ffffff;fill-opacity:1;stroke:#ffffff;stroke-opacity:1"
         id="g8079">
        <g
           transform="matrix(1.25,0,0,-1.25,544.25264,776.12802)"
           id="g8081"
           style="fill:#ffffff;fill-opacity:1;stroke:#ffffff;stroke-opacity:1">
          <path
             inkscape:connector-curvature="0"
             id="path8083"
             style="fill:#ffffff;fill-opacity:1;fill-rule:nonzero;stroke:#ffffff;stroke-opacity:1"
             d="m 0,0 c -0.718,3.159 -2.034,5.555 -3.948,7.186 -1.915,1.632 -4.324,2.151 -7.228,1.557 -2.856,-0.708 -4.799,-2.213 -5.828,-4.514 -1.028,-2.301 -1.19,-5.027 -0.485,-8.177 0.714,-3.137 2.022,-5.487 3.923,-7.048 1.9,-1.562 4.291,-2.043 7.173,-1.445 2.832,0.692 4.779,2.153 5.843,4.384 C 0.514,-5.827 0.698,-3.141 0,0 m -3.2,-0.722 c 0.487,-2.079 0.442,-3.868 -0.136,-5.369 -0.578,-1.501 -1.844,-2.493 -3.796,-2.976 -1.962,-0.401 -3.531,-0.049 -4.709,1.056 -1.177,1.104 -1.993,2.699 -2.449,4.785 -0.499,2.145 -0.46,3.995 0.117,5.549 0.577,1.553 1.837,2.572 3.78,3.056 1.973,0.392 3.551,-0.003 4.734,-1.184 1.184,-1.182 2.004,-2.821 2.46,-4.917 l -0.001,0 z" />
        </g>
        <path
           inkscape:connector-curvature="0"
           id="path8085"
           style="fill:#ffffff;fill-opacity:1;fill-rule:nonzero;stroke:#ffffff;stroke-width:1.25;stroke-opacity:1"
           d="m 555.99351,762.29915 -4.0175,0 0,26.4925 4.0175,0 0,-26.4925 z" />
        <g
           transform="matrix(1.25,0,0,-1.25,595.49951,766.88002)"
           id="g8087"
           style="fill:#ffffff;fill-opacity:1;stroke:#ffffff;stroke-opacity:1">
          <path
             inkscape:connector-curvature="0"
             id="path8089"
             style="fill:#ffffff;fill-opacity:1;fill-rule:nonzero;stroke:#ffffff;stroke-opacity:1"
             d="m 0,0 -2.528,0.575 -8.442,-10.639 -1.39,-2.314 -0.043,0.01 -0.296,2.697 -2.947,13.228 -2.615,0.595 -4.705,-20.692 3.134,-0.713 2.894,12.732 0.044,-0.01 0.225,-2.305 2.722,-12.023 0.086,-0.02 7.652,9.665 1.234,2.027 0.043,-0.01 -2.906,-12.783 3.133,-0.712 L 0,0 Z" />
        </g>
        <g
           transform="matrix(1.25,0,0,-1.25,612.29126,771.12027)"
           id="g8091"
           style="fill:#ffffff;fill-opacity:1;stroke:#ffffff;stroke-opacity:1">
          <path
             inkscape:connector-curvature="0"
             id="path8093"
             style="fill:#ffffff;fill-opacity:1;fill-rule:nonzero;stroke:#ffffff;stroke-opacity:1"
             d="m 0,0 -2.965,1.24 -8.177,-19.554 2.965,-1.239 L 0,0 Z" />
        </g>
        <g
           transform="matrix(1.25,0,0,-1.25,628.39363,781.54452)"
           id="g8095"
           style="fill:#ffffff;fill-opacity:1;stroke:#ffffff;stroke-opacity:1">
          <path
             inkscape:connector-curvature="0"
             id="path8097"
             style="fill:#ffffff;fill-opacity:1;fill-rule:nonzero;stroke:#ffffff;stroke-opacity:1"
             d="M 0,0 -2.464,2.063 -16.068,-14.19 -13.604,-16.252 0,0 Z" />
        </g>
        <g
           transform="matrix(1.25,0,0,-1.25,505.98513,939.40615)"
           id="g8099"
           style="fill:#ffffff;fill-opacity:1;stroke:#ffffff;stroke-opacity:1">
          <path
             inkscape:connector-curvature="0"
             id="path8101"
             style="fill:#ffffff;fill-opacity:1;fill-rule:nonzero;stroke:#ffffff;stroke-opacity:1"
             d="M 0,0 C 1.497,1.343 2.338,2.842 2.522,4.499 2.706,6.156 2.128,7.769 0.787,9.337 l -5.801,6.557 -15.873,-14.045 2.13,-2.406 5.447,4.82 0.069,0.475 3.863,-4.366 c 1.414,-1.53 2.965,-2.294 4.653,-2.293 C -3.037,-1.919 -1.462,-1.278 0,0 Z M -2.174,2.457 C -2.907,1.798 -3.67,1.46 -4.465,1.443 -5.259,1.426 -6.035,1.832 -6.792,2.661 l -3.862,4.366 0.48,0.01 4.429,3.918 0.068,0.476 L -1.8,7.049 C -1.071,6.208 -0.757,5.403 -0.857,4.631 -0.958,3.86 -1.397,3.135 -2.174,2.456 l 0,10e-4 z" />
        </g>
        <g
           transform="matrix(1.25,0,0,-1.25,524.17301,941.8664)"
           id="g8103"
           style="fill:#ffffff;fill-opacity:1;stroke:#ffffff;stroke-opacity:1">
          <path
             inkscape:connector-curvature="0"
             id="path8105"
             style="fill:#ffffff;fill-opacity:1;fill-rule:nonzero;stroke:#ffffff;stroke-opacity:1"
             d="m 0,0 -2.566,1.495 -17.909,-14.093 3.044,-1.775 3.98,3.132 0.018,0.384 8.042,-4.687 -0.324,-0.205 -0.763,-5.006 3.044,-1.775 L 0,0 Z m -10.411,-8.621 0.44,0.138 5.02,3.949 1.323,1.258 0.038,-0.023 -0.499,-1.738 -0.961,-6.314 0.096,-0.45 -5.457,3.18 z" />
        </g>
        <g
           transform="matrix(1.25,0,0,-1.25,552.00938,952.15802)"
           id="g8107"
           style="fill:#ffffff;fill-opacity:1;stroke:#ffffff;stroke-opacity:1">
          <path
             inkscape:connector-curvature="0"
             id="path8109"
             style="fill:#ffffff;fill-opacity:1;fill-rule:nonzero;stroke:#ffffff;stroke-opacity:1"
             d="m 0,0 -15.176,3.716 -0.822,-3.354 6.2,-1.519 -0.259,-0.313 -4.133,-16.876 3.121,-0.764 4.133,16.875 -0.085,0.398 6.199,-1.518 L 0,0 Z" />
        </g>
        <g
           transform="matrix(1.25,0,0,-1.25,580.89551,967.95277)"
           id="g8111"
           style="fill:#ffffff;fill-opacity:1;stroke:#ffffff;stroke-opacity:1">
          <path
             inkscape:connector-curvature="0"
             id="path8113"
             style="fill:#ffffff;fill-opacity:1;fill-rule:nonzero;stroke:#ffffff;stroke-opacity:1"
             d="m 0,0 c -0.312,0.526 -0.66,0.967 -1.042,1.324 -0.383,0.357 -0.741,0.593 -1.075,0.708 l -0.006,0.052 c 0.804,0.549 1.461,1.311 1.97,2.289 0.51,0.977 0.712,2.071 0.608,3.284 -0.297,2.187 -1.133,3.744 -2.509,4.67 -1.377,0.927 -2.958,1.291 -4.743,1.09 l -8.372,-0.916 2.306,-21.069 3.195,0.35 -0.857,7.829 -0.348,0.331 3.767,0.412 c 1.066,0.119 1.941,-0.001 2.626,-0.361 0.684,-0.36 1.255,-0.967 1.715,-1.822 L 0.224,-7.135 3.815,-6.742 0,0 Z M -2.806,7.3 C -2.711,6.447 -2.923,5.709 -3.444,5.085 -3.964,4.461 -4.818,4.074 -6.003,3.923 l -5.243,-0.574 0.265,0.424 -0.578,5.28 -0.348,0.33 5.486,0.601 c 1.022,0.122 1.848,-0.025 2.478,-0.44 0.63,-0.414 1.009,-1.162 1.137,-2.244 z" />
        </g>
        <g
           transform="matrix(1.25,0,0,-1.25,591.48814,945.56952)"
           id="g8115"
           style="fill:#ffffff;fill-opacity:1;stroke:#ffffff;stroke-opacity:1">
          <path
             inkscape:connector-curvature="0"
             id="path8117"
             style="fill:#ffffff;fill-opacity:1;fill-rule:nonzero;stroke:#ffffff;stroke-opacity:1"
             d="M 0,0 -2.821,-1.54 7.335,-20.142 10.156,-18.603 0,0 Z" />
        </g>
        <g
           transform="matrix(1.25,0,0,-1.25,629.68313,947.51515)"
           id="g8119"
           style="fill:#ffffff;fill-opacity:1;stroke:#ffffff;stroke-opacity:1">
          <path
             inkscape:connector-curvature="0"
             id="path8121"
             style="fill:#ffffff;fill-opacity:1;fill-rule:nonzero;stroke:#ffffff;stroke-opacity:1"
             d="m 0,0 -8.862,-7.157 0.011,0.48 -2.943,3.644 -0.471,0.09 8.034,6.488 -2.17,2.687 -8.034,-6.488 0.011,0.48 -2.943,3.644 -0.471,0.09 8.862,7.157 -2.17,2.687 L -22.267,4.821 -8.951,-11.668 2.17,-2.687 0,0 Z" />
        </g>
        <g
           transform="matrix(1.25,0,0,-1.25,625.82876,920.09152)"
           id="g8123"
           style="fill:#ffffff;fill-opacity:1;stroke:#ffffff;stroke-opacity:1">
          <path
             inkscape:connector-curvature="0"
             id="path8125"
             style="fill:#ffffff;fill-opacity:1;fill-rule:nonzero;stroke:#ffffff;stroke-opacity:1"
             d="m 0,0 -2.162,-2.378 15.684,-14.256 2.161,2.378 L 0,0 Z" />
        </g>
        <g
           transform="matrix(1.25,0,0,-1.25,517.76238,788.42027)"
           id="g8127"
           style="fill:#ffffff;fill-opacity:1;stroke:#ffffff;stroke-opacity:1">
          <path
             inkscape:connector-curvature="0"
             id="path8129"
             style="fill:#ffffff;fill-opacity:1;fill-rule:nonzero;stroke:#ffffff;stroke-opacity:1"
             d="M 0,0 C -0.672,1.183 -1.674,1.988 -3.004,2.416 -4.334,2.844 -5.987,2.806 -7.963,2.305 -8.265,2.23 -8.788,2.101 -9.53,1.917 -10.272,1.733 -10.784,1.61 -11.066,1.548 -12.714,1.144 -13.9,0.968 -14.621,1.017 c -0.722,0.05 -1.19,0.293 -1.403,0.73 -0.303,0.472 -0.289,1.104 0.044,1.896 0.332,0.792 1.239,1.635 2.72,2.529 1.007,0.577 2.018,0.882 3.034,0.917 1.015,0.035 2.069,-0.171 3.16,-0.617 l 0.772,3.582 c -3.025,1.003 -5.928,0.703 -8.708,-0.899 -2.307,-1.383 -3.756,-2.909 -4.349,-4.578 -0.592,-1.669 -0.474,-3.222 0.352,-4.66 0.875,-1.434 2.036,-2.236 3.484,-2.405 1.447,-0.169 3.055,-0.019 4.823,0.449 0.173,0.04 0.513,0.125 1.021,0.255 0.507,0.13 1.015,0.26 1.523,0.39 0.508,0.13 0.848,0.215 1.02,0.256 1.243,0.306 2.195,0.364 2.859,0.175 0.663,-0.189 1.103,-0.494 1.32,-0.913 0.362,-0.595 0.352,-1.311 -0.031,-2.149 -0.382,-0.837 -1.315,-1.699 -2.799,-2.585 -0.954,-0.567 -1.971,-0.903 -3.051,-1.007 -1.08,-0.104 -2.393,0.04 -3.938,0.431 l -0.785,-3.559 c 1.473,-0.458 2.905,-0.626 4.297,-0.504 1.391,0.122 2.708,0.461 3.952,1.019 l 0.904,-0.296 c 0.212,-0.058 0.385,-0.186 0.52,-0.384 0.135,-0.197 0.166,-0.504 0.095,-0.922 l -0.512,-2.377 2.076,-0.677 0.698,3.237 c 0.119,0.591 0.058,1.088 -0.181,1.492 -0.239,0.404 -0.616,0.682 -1.129,0.834 l -0.523,0.152 c 2.19,1.456 3.499,3.005 3.929,4.646 C 1.003,-2.884 0.812,-1.376 0,0 Z" />
        </g>
        <g
           transform="matrix(1.25,0,0,-1.25,524.31013,863.55827)"
           id="g8131"
           style="fill:#ffffff;fill-opacity:1;stroke:#ffffff;stroke-opacity:1">
          <path
             inkscape:connector-curvature="0"
             id="path8133"
             style="fill:#ffffff;fill-opacity:1;fill-rule:nonzero;stroke:#ffffff;stroke-opacity:1"
             d="m 0,0 c 0.799,0 1.369,0.569 2.624,1.141 1.255,0.571 5.361,0.341 7.644,-0.686 2.281,-1.027 3.878,-1.712 5.475,-0.796 1.597,0.91 5.59,3.419 7.871,13.802 0.457,3.308 2.282,7.87 5.476,10.382 3.195,2.509 18.709,16.085 21.105,18.937 0,0.114 0.8,-0.455 -0.227,-1.598 -1.028,-1.141 -2.625,-3.878 -0.686,-3.65 1.713,0.343 7.075,4.678 9.469,7.871 0.457,0.573 1.369,0.914 2.51,0.573 0.113,-0.343 -2.395,-2.625 -4.221,-5.021 -0.228,-0.228 -0.114,-1.369 1.255,-1.027 0.913,0.456 5.818,3.536 7.643,4.677 1.256,0.685 0.114,-0.684 -0.113,-1.599 -0.229,-0.681 -1.826,-2.394 -3.423,-2.735 -0.57,-0.457 -1.825,-2.624 -0.685,-2.624 1.141,0 3.651,1.939 5.02,2.737 1.369,0.798 2.966,1.028 3.536,0.798 -0.227,-0.227 -4.791,-3.307 -5.248,-4.448 -0.455,-1.141 0.115,-1.712 1.369,-1.253 1.255,0.455 4.564,2.166 5.705,2.166 0.685,0.114 0,-1.484 -3.309,-4.221 -0.341,0.112 -1.483,-0.798 -1.596,-1.256 -0.114,-0.455 -0.457,-2.738 -1.142,-3.194 -0.684,-0.457 -2.396,-1.026 -1.596,-2.737 0.227,-0.457 -1.027,0.113 -1.827,-0.571 0,-0.57 0.229,-3.537 0.343,-4.678 -0.684,-0.114 -2.281,-0.343 -1.938,-1.482 0.34,-1.141 -0.8,-1.484 -1.142,-2.398 -0.342,-0.912 -0.913,-2.964 -1.141,-3.535 -0.228,-0.57 -1.825,-0.341 -0.912,-2.851 0,-0.229 -2.853,-0.458 -3.879,-1.711 -0.685,-1.257 0.798,-2.967 -2.851,-3.423 -1.027,0.113 -0.572,-1.255 0,-2.967 0.38,-0.925 0.605,-1.262 0.156,-1.488 -0.45,-0.223 -2.244,-1.12 -2.469,-1.906 -0.225,-0.787 -0.561,-2.355 -0.561,-2.355 0,0 -0.786,-1.01 -1.011,-1.347 -0.223,-0.338 -0.448,-0.787 -0.448,-1.236 0,-0.447 -0.785,-0.785 -1.122,-1.008 -0.336,-0.226 -0.785,-1.46 -1.123,-1.795 -0.336,-0.338 -1.121,-0.673 -1.458,-1.122 -0.336,-0.452 0.225,-0.562 -1.57,-1.236 -1.796,-0.673 -4.04,-2.582 -3.03,-4.601 0.898,-1.459 2.356,-1.569 3.254,-1.795 0.898,-0.223 12.456,-6.397 17.167,-6.732 1.123,-0.561 8.415,-1.458 10.436,-2.58 2.019,-1.122 -2.244,-0.673 -9.313,-1.122 -1.458,0.112 -3.03,-0.787 -2.694,-3.143 0.562,0.338 9.874,-2.467 10.884,-3.59 1.01,-1.122 -2.805,-0.672 -3.702,-0.898 -0.897,-0.224 -8.304,3.704 -9.538,2.244 -0.112,-0.896 -1.795,-1.346 0.786,-3.254 2.581,-1.905 2.692,-3.702 1.795,-3.702 -0.898,0 -5.722,3.143 -6.62,3.143 -0.898,0 0.449,-2.47 1.122,-3.367 0.673,-0.898 -0.673,-1.122 -2.356,-0.447 -1.683,0.671 -7.293,9.76 -16.27,15.146 -2.806,0.897 -3.366,1.009 -4.6,1.458 -1.235,0.447 -4.265,-1.458 -5.275,-0.896 -0.336,-0.338 -0.784,-2.92 -1.681,-2.582 -0.899,0.337 -1.011,0.785 -1.684,0.785 -0.674,0 -1.123,-0.448 -1.459,-0.897 -0.336,-0.449 0.225,-1.459 -0.786,-1.01 -1.01,0.449 -1.121,0.223 -1.682,-0.112 -0.562,-0.337 -1.909,-0.561 -2.357,-0.675 -0.448,-0.11 0.448,0.899 -0.448,-0.11 -0.899,-1.01 -2.357,-0.563 -2.357,-0.563 0,0 -1.57,-1.457 -2.132,-1.457 -0.561,0 -0.449,-0.673 -1.57,-1.011 -1.122,-0.337 -2.356,-0.337 -2.356,-0.337 0,0 0.336,0.114 -0.899,0 -1.233,-0.112 -2.468,-0.785 -2.916,-0.896 -0.45,-0.112 0.448,0.896 -1.01,0.111 -1.459,-0.784 -2.245,-1.122 -2.245,-1.122 0,0 0.112,-0.561 -1.571,-0.673 l -1.683,-0.111 c 0,0 -3.254,-0.561 -3.254,-0.114 0,0.449 -0.112,2.358 0.449,2.693 0.561,0.338 0,1.572 -1.01,0.897 -1.01,-0.671 -1.683,-1.57 -1.683,-1.007 0,0.559 0,1.344 -0.449,1.682 -0.448,0.335 0.337,0.111 -0.224,1.233 -0.561,1.123 -0.112,1.123 -1.57,1.123 -1.46,0 -2.357,-0.562 -2.133,0 0.224,0.561 0.561,0.786 0.224,1.01 -0.336,0.223 -0.336,0.786 -0.224,1.234 0.113,0.449 -0.337,0.561 -0.449,0.898 -0.112,0.338 1.122,0.559 -0.336,1.122 -1.459,0.56 -1.909,0.897 -1.909,0.897 0,0 0.226,0.335 0.563,0.786 0.336,0.448 0.897,0.56 0,1.009 -0.899,0.449 -1.123,0.675 -1.684,0.675 -0.562,0 -0.784,-0.561 -1.683,0 -0.898,0.559 -1.571,0.673 -0.224,1.345 1.345,0.675 3.366,1.795 5.385,3.59 2.019,1.795 4.713,3.816 5.835,4.714 1.122,0.899 11.445,1.234 13.689,2.468 2.245,1.234 2.356,1.236 1.571,1.793 -0.785,0.563 -4.039,3.929 -4.264,6.06 C 0.997,-1.109 0,0 0,0" />
        </g>
      </g>
    </g>
  </g>
</svg>
