<?xml version="1.0" encoding="UTF-8" standalone="no"?>
<!-- Created with Inkscape (http://www.inkscape.org/) -->

<svg
   xmlns:osb="http://www.openswatchbook.org/uri/2009/osb"
   xmlns:dc="http://purl.org/dc/elements/1.1/"
   xmlns:cc="http://creativecommons.org/ns#"
   xmlns:rdf="http://www.w3.org/1999/02/22-rdf-syntax-ns#"
   xmlns:svg="http://www.w3.org/2000/svg"
   xmlns="http://www.w3.org/2000/svg"
   xmlns:sodipodi="http://sodipodi.sourceforge.net/DTD/sodipodi-0.dtd"
   xmlns:inkscape="http://www.inkscape.org/namespaces/inkscape"
   width="999.99988"
   height="1600"
   viewBox="0 0 264.5833 423.33334"
   version="1.1"
   id="svg8"
   inkscape:version="0.92.2 (5c3e80d, 2017-08-06)"
   sodipodi:docname="rr-20-18-back.svg">
  <defs
     id="defs2">
    <linearGradient
       osb:paint="solid"
       id="linearGradient31196">
      <stop
         id="stop31198"
         offset="0"
         style="stop-color:#000000;stop-opacity:1;" />
    </linearGradient>
  </defs>
  <sodipodi:namedview
     id="base"
     pagecolor="#ffffff"
     bordercolor="#666666"
     borderopacity="1.0"
     inkscape:pageopacity="0.0"
     inkscape:pageshadow="2"
     inkscape:zoom="0.40625968"
     inkscape:cx="-4.2339252"
     inkscape:cy="1106.8225"
     inkscape:document-units="px"
     inkscape:current-layer="layer9"
     showgrid="false"
     inkscape:window-width="1920"
     inkscape:window-height="995"
     inkscape:window-x="1920"
     inkscape:window-y="0"
     inkscape:window-maximized="1"
     units="px"
     fit-margin-top="0"
     fit-margin-left="0"
     fit-margin-right="0"
     fit-margin-bottom="0"
     showguides="true" />
  <metadata
     id="metadata5">
    <rdf:RDF>
      <cc:Work
         rdf:about="">
        <dc:format>image/svg+xml</dc:format>
        <dc:type
           rdf:resource="http://purl.org/dc/dcmitype/StillImage" />
        <dc:title />
      </cc:Work>
    </rdf:RDF>
  </metadata>
  <g
     inkscape:groupmode="layer"
     id="layer5"
     inkscape:label="Background"
     style="display:none"
     transform="translate(25.470641,110.2906)">
    <rect
       style="opacity:0.98000004;fill:#a0a0ff;fill-opacity:1;stroke:none;stroke-width:1.26963687;stroke-miterlimit:4;stroke-dasharray:none;stroke-opacity:1"
       id="rect2367"
       width="263.31366"
       height="422.06369"
       x="-24.835823"
       y="-109.65578"
       rx="2.4312215"
       ry="3.6098411" />
  </g>
  <g
     inkscape:groupmode="layer"
     id="layer9"
     inkscape:label="Festival"
     style="display:inline">
    <g
       id="g1128"
       transform="translate(-1.378886e-6)">
      <g
         id="g1033">
        <g
           id="layer6-8-7"
           inkscape:label="Alen"
           style="display:inline;fill:#000000"
           transform="matrix(0.04382451,0,0,0.04382451,-1.849061,49.790748)">
          <g
             style="display:inline;fill:#000000"
             id="g4230-3-8"
             transform="matrix(-1,0,0,1,1140.0017,1482.079)"
             inkscape:export-xdpi="76.489998"
             inkscape:export-ydpi="76.489998">
            <path
               sodipodi:nodetypes="cccccccccccc"
               inkscape:connector-curvature="0"
               id="path4171-6-6"
               d="m 178.58832,-42.68362 -7.04395,-7.62895 c -44.57344,-83.05641 -36.49829,-130.03482 -113.9772,-220.98536 -17.76028,-15.51793 -34.53119,-34.66353 -54.45483,-42.24917 -8.07864,-6.0305 -19.39238,-11.86395 -32.11215,-14.02685 -32.59506,-10.65732 -61.84076,-5.71737 -89.73272,14.19548 -16.194,10.57559 -24.43056,27.35302 -31.2302,51.23728 -6.90286,-47.45653 36.075,-67.59413 39.37215,-72.10781 47.53201,-33.24008 112.76096,-20.82732 182.85286,8.40045 49.76253,12.50583 85.45794,46.16386 111.72306,94.90413 28.62414,58.7347 35.8981,123.79781 16.87668,189.571 z"
               style="opacity:1;fill:#000000;fill-opacity:1;fill-rule:nonzero;stroke:#000000;stroke-width:0.1;stroke-linejoin:miter;stroke-miterlimit:4;stroke-dasharray:none;stroke-dashoffset:0;stroke-opacity:1" />
            <path
               sodipodi:nodetypes="cccc"
               inkscape:connector-curvature="0"
               id="path4174-6-8"
               d="m -149.9671,-262.30591 c 1.24817,8.0441 5.01884,15.7844 15.6119,20.71354 l 19.54984,0.18374 c 42.09548,-60.21301 79.84584,-62.20137 118.18098,-72.02572"
               style="fill:#000000;fill-rule:evenodd;stroke:#000000;stroke-width:1px;stroke-linecap:butt;stroke-linejoin:miter;stroke-opacity:1" />
            <path
               sodipodi:nodetypes="cccccccccccccccccccccccccccccc"
               inkscape:connector-curvature="0"
               id="path4180-7-8"
               d="m -70.88608,132.71416 c -5.55879,-4.25682 -16.95567,-7.48051 -42.44691,-12.29101 -1.87621,1.30667 -3.79714,0.48984 -7.85934,-0.38949 -5.5342,-4.48952 -8.33363,-12.66287 2.72868,-19.16468 14.75051,2.86451 29.50102,-0.49658 44.25153,-4.74117 l 6.48419,-3.19583 c -0.78816,-4.1663 0.15373,-8.33259 -2.84633,-12.49889 0.99317,-2.77606 3.09707,-1.84968 4.85583,-2.07378 0.79632,4.76739 0.64153,10.26946 2.2361,12.90818 1.33363,2.19656 2.65952,4.47046 4.2629,3.96946 l 6.39364,-1.01958 6.9653,0.53949 c -3.08082,-3.34204 -2.23377,-6.91505 -0.67418,-10.52996 2.49597,-4.53182 9.24313,-3.76303 9.6677,-3.56607 4.46035,3.65861 3.98522,7.7562 3.43286,9.49801 -1.10101,4.85421 -2.67879,4.70058 -4.10416,6.36004 l 2.13217,1.8907 11.27874,5.00885 -11.37985,-0.91565 c -4.40387,1.83184 -5.77583,3.34886 -7.2223,6.25612 l -3.16871,-9.75042 c -0.98425,-2.15486 -1.97454,-4.29522 -4.31203,-3.2023 -0.46725,0.63672 -0.51875,0.59993 -0.986,2.98206 2.16829,4.3008 3.13329,11.60979 4.69994,17.41469 5.08843,5.78974 8.72208,-3.57315 11.68651,-13.08625 l 11.45594,0.73257 c -0.17681,3.29305 -4.93111,8.76881 -7.56482,12.06186 -5.32794,4.24313 -11.17557,8.8368 -16.50352,9.77522 -3.81438,5.89996 -11.9144,8.3104 -23.46383,7.02783 z"
               style="opacity:1;fill:#000000;fill-opacity:1;fill-rule:nonzero;stroke:#000000;stroke-width:0.1;stroke-linejoin:miter;stroke-miterlimit:4;stroke-dasharray:none;stroke-dashoffset:0;stroke-opacity:1" />
          </g>
        </g>
        <rect
           style="opacity:0.98000004;fill:none;fill-opacity:1;stroke:#000000;stroke-width:0.98567444;stroke-miterlimit:4;stroke-dasharray:none;stroke-opacity:1"
           id="rect1648"
           width="32.880993"
           height="32.880997"
           x="30.340023"
           y="93.457726"
           rx="2.279994"
           ry="2.319994" />
        <g
           id="g1023-9-7"
           transform="matrix(0.07256911,0,0,0.07256911,165.323,100.17404)"
           style="fill:#000000">
          <g
             id="g964-7-0"
             style="fill:#000000">
            <g
               id="g962-6-9"
               style="fill:#000000">
              <path
                 id="path956-6-3"
                 d="m 243.378,112.894 c 0,-11.622 -21.626,-21.782 -53.851,-27.296 l 23.658,-77.62 c 0.83,-2.717 -0.7,-5.593 -3.417,-6.419 l -4.38,-1.333 c -2.715,-0.831 -5.585,0.701 -6.415,3.417 l -24.341,79.834 c -12.562,-1.456 -26.27,-2.26 -40.627,-2.26 -60.411,0 -109.384,14.187 -109.384,31.678 0,6.328 6.408,12.232 17.47,17.178 l -0.153,0.33 c -20.466,27.539 -9.843,68.85 -9.843,68.85 3.238,13.608 10.943,23.73 20.83,31.254 h -0.142 v 16.004 c -4.149,-0.914 -7.909,0.604 -8.516,3.537 -0.638,3.049 2.376,6.46 6.728,7.62 4.344,1.157 8.385,-0.368 9.017,-3.417 l 0.056,-0.352 0.202,-18.488 c 21.307,12.53 49.031,15.752 65.63,16.482 l 0.161,12.301 c 0.632,3.05 4.671,4.574 9.016,3.417 4.351,-1.159 7.366,-4.571 6.728,-7.62 -0.605,-2.934 -4.367,-4.451 -8.516,-3.537 v -4.369 c 13.895,-0.104 45.322,-1.905 69.779,-14.936 l 0.184,16.75 0.057,0.352 c 0.631,3.049 4.671,4.574 9.016,3.417 4.351,-1.16 7.365,-4.571 6.727,-7.62 -0.606,-2.934 -4.366,-4.451 -8.516,-3.537 v -13.865 c 11.305,-7.712 20.238,-18.451 23.795,-33.393 0,0 10.564,-41.088 -9.672,-68.627 h 0.004 c 11.812,-5.066 18.715,-11.167 18.715,-17.732 z m -109.372,23.409 c -50.637,0 -91.678,-10.918 -91.678,-24.398 0,-13.467 41.041,-24.385 91.678,-24.385 13.83,0 26.945,0.817 38.703,2.276 l -1.122,3.674 h -10e-4 c -8.16,0.798 -14.539,7.683 -14.539,16.055 0,0.666 0.053,1.324 0.129,1.968 h 32.002 c 0.08,-0.644 0.133,-1.302 0.133,-1.968 0,-4.005 -1.465,-7.67 -3.881,-10.49 l 2.11,-6.925 c 23.098,4.425 38.133,11.643 38.133,19.795 0,13.479 -41.041,24.398 -91.667,24.398 z"
                 style="fill:#000000"
                 inkscape:connector-curvature="0" />
              <path
                 id="path958-7-6"
                 d="m 99.498,113.853 c -6.299,0 -11.408,5.112 -11.408,11.412 0,0.469 0.038,0.933 0.094,1.389 h 22.629 c 0.059,-0.456 0.097,-0.92 0.097,-1.389 0,-6.3 -5.108,-11.412 -11.412,-11.412 z"
                 style="fill:#000000"
                 inkscape:connector-curvature="0" />
              <path
                 id="path960-4-0"
                 d="m 123.695,94.488 c -4.562,0 -8.262,3.698 -8.262,8.262 0,0.342 0.028,0.677 0.07,1.006 h 16.388 c 0.041,-0.329 0.066,-0.664 0.066,-1.006 0,-4.564 -3.697,-8.262 -8.262,-8.262 z"
                 style="fill:#000000"
                 inkscape:connector-curvature="0" />
            </g>
          </g>
          <g
             id="g966-1-6"
             style="fill:#000000" />
          <g
             id="g968-0-2"
             style="fill:#000000" />
          <g
             id="g970-0-6"
             style="fill:#000000" />
          <g
             id="g972-5-1"
             style="fill:#000000" />
          <g
             id="g974-3-8"
             style="fill:#000000" />
          <g
             id="g976-0-7"
             style="fill:#000000" />
          <g
             id="g978-8-9"
             style="fill:#000000" />
          <g
             id="g980-4-2"
             style="fill:#000000" />
          <g
             id="g982-9-0"
             style="fill:#000000" />
          <g
             id="g984-4-2"
             style="fill:#000000" />
          <g
             id="g986-9-3"
             style="fill:#000000" />
          <g
             id="g988-1-7"
             style="fill:#000000" />
          <g
             id="g990-2-5"
             style="fill:#000000" />
          <g
             id="g992-0-9"
             style="fill:#000000" />
          <g
             id="g994-1-2"
             style="fill:#000000" />
        </g>
        <rect
           style="opacity:0.98000004;fill:none;fill-opacity:1;stroke:#000000;stroke-width:0.98567444;stroke-miterlimit:4;stroke-dasharray:none;stroke-opacity:1"
           id="rect1648-9"
           width="32.880993"
           height="32.880997"
           x="158.60674"
           y="93.457726"
           rx="2.279994"
           ry="2.319994" />
        <g
           id="g1113-6-7"
           transform="matrix(0.88607948,0,0,0.88607948,80.455544,100.81769)"
           style="fill:#000000">
          <g
             id="g1055-9-3"
             style="fill:#000000">
            <g
               id="g1053-2-6"
               style="fill:#000000">
              <path
                 id="path1049-0-1"
                 d="m 16.197,8.55 h -0.911 c -0.188,0 -0.37,0.019 -0.548,0.052 V 6.545 C 14.738,6.433 14.725,6.324 14.705,6.218 15.304,5.775 15.696,5.07 15.696,4.27 15.696,2.78 14.324,1.585 12.813,1.884 12.313,1.358 11.6,1.061 10.867,1.098 10.399,0.42 9.62,0 8.789,0 8.114,0 7.476,0.268 7.006,0.734 6.881,0.683 6.753,0.642 6.623,0.612 L 6.459,0.58 C 6.333,0.56 6.207,0.549 6.078,0.547 5.889,0.532 5.707,0.533 5.528,0.548 H 5.479 V 0.552 C 4.405,0.66 3.5,1.296 3.145,2.183 2.09,2.383 1.29,3.312 1.29,4.422 1.29,5.197 1.68,5.88 2.272,6.292 2.26,6.375 2.247,6.458 2.247,6.545 v 12.309 c 0,0.905 0.736,1.642 1.641,1.642 h 9.208 c 0.905,0 1.642,-0.736 1.642,-1.642 V 16.34 c 0.178,0.033 0.36,0.053 0.548,0.053 h 0.911 c 1.659,0 3.009,-1.351 3.009,-3.01 v -1.822 c 0,-1.66 -1.35,-3.011 -3.009,-3.011 z m -2.554,10.304 c 0,0.302 -0.244,0.547 -0.547,0.547 H 3.888 c -0.302,0 -0.547,-0.245 -0.547,-0.547 V 6.545 c 0,-0.302 0.245,-0.547 0.547,-0.547 h 9.208 c 0.303,0 0.547,0.245 0.547,0.547 z M 14.13,5.28 v 0 C 13.848,5.048 13.49,4.903 13.096,4.903 H 3.888 C 3.471,4.903 3.095,5.064 2.805,5.32 2.549,5.103 2.384,4.783 2.384,4.422 2.384,3.771 2.913,3.24 3.565,3.238 L 4.013,3.236 4.1,2.797 C 4.202,2.283 4.735,1.74 5.552,1.645 H 6.155 C 6.4,1.662 6.636,1.742 6.844,1.879 L 7.296,2.178 7.599,1.729 C 7.867,1.332 8.312,1.094 8.79,1.094 c 0.556,0 1.05,0.315 1.292,0.823 l 0.184,0.387 0.42,-0.086 c 0.571,-0.115 1.154,0.124 1.478,0.597 l 0.239,0.352 0.4,-0.147 c 0.161,-0.059 0.312,-0.088 0.461,-0.088 0.737,0 1.338,0.6 1.338,1.338 0,0.405 -0.186,0.765 -0.472,1.01 z m 3.435,8.103 c 0,0.754 -0.613,1.368 -1.368,1.368 h -0.911 c -0.195,0 -0.38,-0.042 -0.548,-0.116 v -4.326 c 0.168,-0.074 0.353,-0.116 0.548,-0.116 h 0.911 c 0.754,0 1.368,0.613 1.368,1.368 z"
                 inkscape:connector-curvature="0"
                 style="fill:#000000" />
              <rect
                 id="rect1051-6-2"
                 height="10.851"
                 width="9.21"
                 y="8.0030003"
                 x="3.888"
                 style="fill:#000000" />
            </g>
          </g>
          <g
             id="g1057-2-9"
             style="fill:#000000" />
          <g
             id="g1059-1-3"
             style="fill:#000000" />
          <g
             id="g1061-3-1"
             style="fill:#000000" />
          <g
             id="g1063-8-9"
             style="fill:#000000" />
          <g
             id="g1065-8-4"
             style="fill:#000000" />
          <g
             id="g1067-2-7"
             style="fill:#000000" />
          <g
             id="g1069-3-8"
             style="fill:#000000" />
          <g
             id="g1071-1-4"
             style="fill:#000000" />
          <g
             id="g1073-2-5"
             style="fill:#000000" />
          <g
             id="g1075-5-0"
             style="fill:#000000" />
          <g
             id="g1077-7-3"
             style="fill:#000000" />
          <g
             id="g1079-5-6"
             style="fill:#000000" />
          <g
             id="g1081-8-1"
             style="fill:#000000" />
          <g
             id="g1083-7-0"
             style="fill:#000000" />
          <g
             id="g1085-1-6"
             style="fill:#000000" />
        </g>
        <rect
           style="opacity:0.98000004;fill:none;fill-opacity:1;stroke:#000000;stroke-width:0.98567444;stroke-miterlimit:4;stroke-dasharray:none;stroke-opacity:1"
           id="rect1648-9-2"
           width="32.880993"
           height="32.880997"
           x="73.095589"
           y="93.457726"
           rx="2.279994"
           ry="2.319994" />
        <g
           id="g1173-2-1"
           transform="matrix(0.03415073,0,0,0.03415073,209.63732,101.73278)"
           style="fill:#000000">
          <g
             id="g1117-2-5"
             style="fill:#000000">
            <path
               id="path1115-4-5"
               d="m 457.575,325.1 c 9.8,-12.5 14.5,-25.9 13.9,-39.7 -0.6,-15.2 -7.4,-27.1 -13,-34.4 6.5,-16.2 9,-41.7 -12.7,-61.5 -15.9,-14.5 -42.9,-21 -80.3,-19.2 -26.3,1.2 -48.3,6.1 -49.2,6.3 h -0.1 c -5,0.9 -10.3,2 -15.7,3.2 -0.4,-6.4 0.7,-22.3 12.5,-58.1 14,-42.6 13.2,-75.2 -2.6,-97 -16.6,-22.9 -43.1,-24.7 -50.9,-24.7 -7.5,0 -14.4,3.1 -19.3,8.8 -11.1,12.9 -9.8,36.7 -8.4,47.7 -13.2,35.4 -50.2,122.2 -81.5,146.3 -0.6,0.4 -1.1,0.9 -1.6,1.4 -9.2,9.7 -15.4,20.2 -19.6,29.4 -5.9,-3.2 -12.6,-5 -19.8,-5 h -61 c -23,0 -41.6,18.7 -41.6,41.6 v 162.5 c 0,23 18.7,41.6 41.6,41.6 h 61 c 8.9,0 17.2,-2.8 24,-7.6 l 23.5,2.8 c 3.6,0.5 67.6,8.6 133.3,7.3 11.9,0.9 23.1,1.4 33.5,1.4 17.9,0 33.5,-1.4 46.5,-4.2 30.6,-6.5 51.5,-19.5 62.1,-38.6 8.1,-14.6 8.1,-29.1 6.8,-38.3 19.9,-18 23.4,-37.9 22.7,-51.9 -0.4,-8.1 -2.2,-15 -4.1,-20.1 z m -409.3,122.2 c -8.1,0 -14.6,-6.6 -14.6,-14.6 V 270.1 c 0,-8.1 6.6,-14.6 14.6,-14.6 h 61 c 8.1,0 14.6,6.6 14.6,14.6 v 162.5 c 0,8.1 -6.6,14.6 -14.6,14.6 h -61 z m 383.7,-133.9 c -4.2,4.4 -5,11.1 -1.8,16.3 0,0.1 4.1,7.1 4.6,16.7 0.7,13.1 -5.6,24.7 -18.8,34.6 -4.7,3.6 -6.6,9.8 -4.6,15.4 0,0.1 4.3,13.3 -2.7,25.8 -6.7,12 -21.6,20.6 -44.2,25.4 -18.1,3.9 -42.7,4.6 -72.9,2.2 -0.4,0 -0.9,0 -1.4,0 -64.3,1.4 -129.3,-7 -130,-7.1 h -0.1 l -10.1,-1.2 c 0.6,-2.8 0.9,-5.8 0.9,-8.8 V 270.1 c 0,-4.3 -0.7,-8.5 -1.9,-12.4 1.8,-6.7 6.8,-21.6 18.6,-34.3 44.9,-35.6 88.8,-155.7 90.7,-160.9 0.8,-2.1 1,-4.4 0.6,-6.7 -1.7,-11.2 -1.1,-24.9 1.3,-29 5.3,0.1 19.6,1.6 28.2,13.5 10.2,14.1 9.8,39.3 -1.2,72.7 -16.8,50.9 -18.2,77.7 -4.9,89.5 6.6,5.9 15.4,6.2 21.8,3.9 6.1,-1.4 11.9,-2.6 17.4,-3.5 0.4,-0.1 0.9,-0.2 1.3,-0.3 30.7,-6.7 85.7,-10.8 104.8,6.6 16.2,14.8 4.7,34.4 3.4,36.5 -3.7,5.6 -2.6,12.9 2.4,17.4 0.1,0.1 10.6,10 11.1,23.3 0.4,8.9 -3.8,18 -12.5,27 z"
               inkscape:connector-curvature="0"
               style="fill:#000000" />
          </g>
          <g
             id="g1119-6-4"
             style="fill:#000000" />
          <g
             id="g1121-3-7"
             style="fill:#000000" />
          <g
             id="g1123-1-6"
             style="fill:#000000" />
          <g
             id="g1125-4-5"
             style="fill:#000000" />
          <g
             id="g1127-3-6"
             style="fill:#000000" />
          <g
             id="g1129-5-9"
             style="fill:#000000" />
          <g
             id="g1131-4-3"
             style="fill:#000000" />
          <g
             id="g1133-9-7"
             style="fill:#000000" />
          <g
             id="g1135-7-4"
             style="fill:#000000" />
          <g
             id="g1137-6-5"
             style="fill:#000000" />
          <g
             id="g1139-4-2"
             style="fill:#000000" />
          <g
             id="g1141-6-5"
             style="fill:#000000" />
          <g
             id="g1143-6-4"
             style="fill:#000000" />
          <g
             id="g1145-6-7"
             style="fill:#000000" />
          <g
             id="g1147-1-4"
             style="fill:#000000" />
        </g>
        <rect
           style="opacity:0.98000004;fill:none;fill-opacity:1;stroke:#000000;stroke-width:0.98567444;stroke-miterlimit:4;stroke-dasharray:none;stroke-opacity:1"
           id="rect1648-9-6"
           width="32.880993"
           height="32.880997"
           x="201.36229"
           y="93.457726"
           rx="2.279994"
           ry="2.319994" />
        <g
           id="g1859"
           transform="matrix(0.98877315,0,0,0.98877315,126.0062,97.319961)"
           style="fill:#000000">
          <g
             id="g1798"
             style="fill:#000000">
            <path
               id="path1786"
               style="fill:#000000"
               d="M 12.167,10.778 C 12.084,9.648 11.624,8.635 10.924,7.849 9.806,6.589 9.345,5.281 9.345,2.904 8.668,3.675 8.407,4.399 8.182,5.133 8.213,6.231 8.298,7.33 8.527,8.404 8.676,9.1 8.854,9.79 9.099,10.457 c 0.247,0.676 0.631,1.347 0.759,2.061 0.24,1.343 -0.36,2.374 -1.091,3.366 0.204,-0.067 0.393,-0.149 0.558,-0.249 1.205,-0.722 3.001,-2.742 2.842,-4.857 z"
               inkscape:connector-curvature="0" />
            <path
               id="path1788"
               style="fill:#000000"
               d="M 8.212,16.019 C 8.517,15.627 8.815,15.231 9.069,14.806 9.836,13.518 9.479,12.474 8.968,11.161 8.157,9.075 7.867,6.944 7.805,4.74 7.453,3.013 6.779,1.413 5.848,0 5.912,0.331 5.956,1.074 5.984,1.416 6.145,3.588 5.719,5.136 4.321,7.035 c 0.603,1.927 1.624,3.528 2.076,5.519 0.269,1.185 0.327,2.354 0.243,3.519 0.524,0.055 1.072,0.037 1.572,-0.054 z"
               inkscape:connector-curvature="0" />
            <path
               id="path1790"
               style="fill:#000000"
               d="m 5.885,12.071 c -0.5,-1.666 -2.238,-5.45 -2.782,-7.083 0,1.3 -0.131,2.388 -0.257,2.911 -0.301,1.255 -0.581,2.558 -0.581,3.619 0,1.844 1.74,3.485 2.819,4.104 0.327,0.188 0.745,0.321 1.198,0.4 0.094,-1.318 -0.001,-2.636 -0.397,-3.951 z"
               inkscape:connector-curvature="0" />
            <polygon
               id="polygon1792"
               style="fill:#000000"
               points="0,17.449 0.052,17.267 0.563,15.483 0.614,15.302 0.795,15.354 14.262,19.207 14.442,19.26 14.39,19.44 13.88,21.226 13.828,21.407 13.647,21.354 0.182,17.5 " />
            <polygon
               id="polygon1794"
               style="fill:#000000"
               points="14.209,17.318 13.699,15.534 7.905,17.193 11.279,18.158 " />
            <polygon
               id="polygon1796"
               style="fill:#000000"
               points="3.164,18.55 0.233,19.389 0.744,21.173 6.538,19.515 " />
          </g>
          <g
             id="g1800"
             style="fill:#000000" />
          <g
             id="g1802"
             style="fill:#000000" />
          <g
             id="g1804"
             style="fill:#000000" />
          <g
             id="g1806"
             style="fill:#000000" />
          <g
             id="g1808"
             style="fill:#000000" />
          <g
             id="g1810"
             style="fill:#000000" />
          <g
             id="g1812"
             style="fill:#000000" />
          <g
             id="g1814"
             style="fill:#000000" />
          <g
             id="g1816"
             style="fill:#000000" />
          <g
             id="g1818"
             style="fill:#000000" />
          <g
             id="g1820"
             style="fill:#000000" />
          <g
             id="g1822"
             style="fill:#000000" />
          <g
             id="g1824"
             style="fill:#000000" />
          <g
             id="g1826"
             style="fill:#000000" />
          <g
             id="g1828"
             style="fill:#000000" />
        </g>
        <rect
           style="opacity:0.98000004;fill:none;fill-opacity:1;stroke:#000000;stroke-width:0.98567444;stroke-miterlimit:4;stroke-dasharray:none;stroke-opacity:1"
           id="rect1648-9-6-6"
           width="32.880993"
           height="32.880997"
           x="115.85116"
           y="93.457726"
           rx="2.279994"
           ry="2.319994" />
      </g>
    </g>
    <g
       id="g2094"
       transform="translate(7.023397)"
       inkscape:export-filename="/home/aviato-vasile/rr2018-back-ico.png"
       inkscape:export-xdpi="96"
       inkscape:export-ydpi="96"
       style="fill:#000000">
      <text
         xml:space="preserve"
         style="font-style:normal;font-weight:normal;font-size:10.58333302px;line-height:1.25;font-family:sans-serif;letter-spacing:0px;word-spacing:0px;fill:#000000;fill-opacity:1;stroke:none;stroke-width:0.26458332"
         x="75.515854"
         y="194.08751"
         id="text1080"><tspan
           sodipodi:role="line"
           id="tspan1078"
           x="75.515854"
           y="203.45128"
           style="font-style:normal;font-variant:normal;font-weight:normal;font-stretch:normal;font-size:16.93333435px;font-family:Aventura;-inkscape-font-specification:Aventura;stroke-width:0.26458332" /></text>
      <g
         id="g939">
        <g
           id="flowRoot815-3-7"
           style="font-style:normal;font-weight:normal;font-size:40px;line-height:1.25;font-family:sans-serif;letter-spacing:0px;word-spacing:0px;fill:#000000;fill-opacity:1;stroke:#000000;stroke-opacity:1"
           transform="matrix(0.26458333,0,0,0.26458333,29.624081,28.036137)"
           aria-label="RAPA ROȘIE   ">
          <path
             id="path1107"
             style="font-style:normal;font-variant:normal;font-weight:bold;font-stretch:normal;font-family:Aventura;-inkscape-font-specification:'Aventura Bold';stroke:#000000;stroke-opacity:1"
             d="m 95.032662,72.777589 c 1.950476,-2.31619 3.291428,-4.998095 3.779047,-8.533333 0.487619,-3.047619 0.487619,-6.217143 0.24381,-10.361905 -0.24381,-2.80381 -0.853334,-5.241905 -2.072381,-7.192381 -1.219048,-2.194286 -2.925715,-4.022858 -5.36381,-5.485715 -3.657143,-1.950476 -8.411429,-2.925714 -15.481905,-2.925714 h -0.24381 c -5.241905,0 -9.386667,0 -12.8,0 h -4.144762 c -3.779048,-0.121905 -7.070476,-0.121905 -10.48381,0 h -3.169524 l 0.24381,12.8 h 2.56 L 47.977422,100.69378 H 60.899327 V 78.750923 h 1.462857 c 1.462858,0 2.681905,0 4.022858,0 h 3.900952 c 1.828572,0 3.900953,0 5.973334,-0.121905 L 90.887899,102.03473 102.10314,95.208066 90.40028,76.190923 c 1.828572,-0.853333 3.291429,-2.072381 4.632382,-3.413334 z M 62.484089,65.950923 H 60.899327 V 51.078541 h 2.072381 c 3.535238,0.121905 7.801905,0.121905 13.04381,0 5.729524,0 8.167619,0.609524 9.264762,1.340953 0.487619,0.243809 0.853334,0.731428 0.975238,2.194285 v 0.24381 c 0.609524,7.070476 -0.365714,8.899048 -0.731428,9.386667 l -0.24381,0.121905 c -0.365714,0.487619 -2.194285,1.219047 -8.777143,1.584762 z"
             inkscape:connector-curvature="0" />
          <path
             id="path1109"
             style="font-style:normal;font-variant:normal;font-weight:bold;font-stretch:normal;font-family:Aventura;-inkscape-font-specification:'Aventura Bold';stroke:#000000;stroke-opacity:1"
             d="m 118.17742,100.93759 6.21715,-14.872381 h 23.40571 l 5.85143,14.628571 11.45905,-4.510476 -4.26667,-10.849524 V 73.630923 h -4.63238 L 141.58314,36.571874 h -10.24 l -15.2381,37.059049 h -4.99809 V 85.33378 l -4.14476,10.240001 z m 24.62477,-27.306667 h -13.40953 l 6.82667,-16.579048 z"
             inkscape:connector-curvature="0" />
          <path
             id="path1111"
             style="font-style:normal;font-variant:normal;font-weight:bold;font-stretch:normal;font-family:Aventura;-inkscape-font-specification:'Aventura Bold';stroke:#000000;stroke-opacity:1"
             d="m 171.54695,48.274732 h 2.68191 l -0.12191,53.028568 h 13.77524 V 77.65378 h 1.58476 c 1.46286,0 2.80381,0 4.14476,0.121905 4.51048,0 9.02096,-0.121905 11.33715,-0.121905 4.02285,-0.121905 7.31428,-0.487619 10.24,-1.219048 3.90095,-0.975238 6.82666,-2.56 8.89904,-4.998095 2.19429,-2.316191 3.53524,-5.241905 4.14477,-9.142857 0.48762,-3.04762 0.60952,-6.582858 0.24381,-11.093334 -0.24381,-3.047619 -0.97524,-5.485714 -2.19429,-7.558096 -1.34095,-2.438095 -3.29143,-4.388571 -5.72952,-5.729523 -3.90096,-2.194286 -9.02096,-3.169524 -16.45715,-3.169524 h -0.24381 c -5.60762,0 -9.99619,0 -13.65333,0 h -4.51048 c -4.02285,-0.121905 -7.31428,-0.121905 -10.97143,0 l -3.53523,0.121904 z m 16.33524,15.725714 v -15.60381 h 2.31619 c 3.65714,0 8.16762,0 13.65333,-0.121904 6.09524,0 8.77715,0.731428 9.99619,1.462857 0.60953,0.365714 0.97524,0.853333 0.97524,2.56 0.60953,7.68 -0.36571,9.508572 -0.73143,9.996191 -1.21904,1.340952 -7.55809,1.706666 -9.50857,1.828571 -3.53524,0 -9.50857,0 -15.11619,-0.121905 z"
             inkscape:connector-curvature="0" />
          <path
             id="path1113"
             style="font-style:normal;font-variant:normal;font-weight:bold;font-stretch:normal;font-family:Aventura;-inkscape-font-specification:'Aventura Bold';stroke:#000000;stroke-opacity:1"
             d="m 244.8441,100.93759 6.21714,-14.872381 h 23.40572 l 5.85143,14.628571 11.45904,-4.510476 -4.26666,-10.849524 V 73.630923 h -4.63238 L 268.24981,36.571874 h -10.24 l -15.23809,37.059049 h -4.9981 V 85.33378 l -4.14476,10.240001 z M 269.46886,73.630923 H 256.05934 L 262.886,57.051875 Z"
             inkscape:connector-curvature="0" />
          <path
             id="path1115"
             style="font-style:normal;font-variant:normal;font-weight:bold;font-stretch:normal;font-family:Aventura;-inkscape-font-specification:'Aventura Bold';stroke:#000000;stroke-opacity:1"
             d="m 411.03266,72.777589 c 1.95048,-2.31619 3.29143,-4.998095 3.77905,-8.533333 0.48762,-3.047619 0.48762,-6.217143 0.24381,-10.361905 -0.24381,-2.80381 -0.85333,-5.241905 -2.07238,-7.192381 -1.21905,-2.194286 -2.92572,-4.022858 -5.36381,-5.485715 -3.65714,-1.950476 -8.41143,-2.925714 -15.48191,-2.925714 h -0.24381 c -5.2419,0 -9.38666,0 -12.8,0 h -4.14476 c -3.77905,-0.121905 -7.07048,-0.121905 -10.48381,0 h -3.16952 l 0.24381,12.8 h 2.56 l -0.12191,49.615239 h 12.92191 V 78.750923 h 1.46285 c 1.46286,0 2.68191,0 4.02286,0 h 3.90095 c 1.82858,0 3.90096,0 5.97334,-0.121905 l 14.62857,23.405712 11.21524,-6.826664 -11.70286,-19.017143 c 1.82857,-0.853333 3.29143,-2.072381 4.63238,-3.413334 z m -32.54857,-6.826666 h -1.58476 V 51.078541 h 2.07238 c 3.53524,0.121905 7.8019,0.121905 13.04381,0 5.72952,0 8.16762,0.609524 9.26476,1.340953 0.48762,0.243809 0.85333,0.731428 0.97524,2.194285 v 0.24381 c 0.60952,7.070476 -0.36572,8.899048 -0.73143,9.386667 l -0.24381,0.121905 c -0.36571,0.487619 -2.19429,1.219047 -8.77714,1.584762 z"
             inkscape:connector-curvature="0" />
          <path
             id="path1117"
             style="font-style:normal;font-variant:normal;font-weight:bold;font-stretch:normal;font-family:Aventura;-inkscape-font-specification:'Aventura Bold';stroke:#000000;stroke-opacity:1"
             d="m 425.4003,82.164256 0.1219,0.487619 c 1.46286,3.535239 3.53524,6.826667 6.09524,9.752382 2.80381,2.925714 5.97334,5.363809 9.75238,7.070476 3.90096,1.828567 7.92381,2.803807 11.94667,2.803807 h 0.12191 c 4.14476,0 8.16761,-0.97524 12.06857,-2.803807 3.65714,-1.706667 6.94857,-4.144762 9.63047,-7.070476 2.56,-2.925715 4.75429,-6.217143 6.21715,-9.752382 l 0.73143,-2.438095 c 1.21904,-3.657143 1.82857,-7.314286 1.82857,-11.337143 0,-3.047619 -0.36572,-5.851429 -1.09715,-8.533334 l 0.36572,-0.121904 -0.97524,-2.80381 -0.24381,-0.731429 c -0.1219,0 -0.1219,-0.121904 -0.1219,-0.243809 l -0.12191,-0.365714 c -1.46286,-3.900953 -3.65714,-7.558096 -6.58286,-10.605715 -2.6819,-3.047619 -5.97333,-5.485714 -9.63047,-7.192381 -3.77905,-1.828572 -7.80191,-2.56 -12.06857,-2.56 h -0.12191 c -4.14476,0 -8.16762,0.731428 -12.06857,2.56 -3.65714,1.706667 -6.82667,4.144762 -9.63048,7.192381 -2.80381,3.047619 -4.87619,6.582857 -6.33905,10.361905 -0.1219,0.24381 -0.2438,0.487619 -0.2438,0.731429 l -0.12191,0.121904 -1.21905,3.535239 0.24381,0.121904 c -0.73143,2.80381 -0.97524,5.729524 -0.97524,8.533334 0,4.022857 0.60953,7.68 1.70667,11.337143 z m 10.97143,-13.287619 c 0,-5.241905 1.82857,-9.996191 5.2419,-13.653334 3.16953,-3.657143 7.31429,-5.485714 11.70286,-5.485714 4.51048,0 8.77714,1.828571 11.94667,5.485714 3.29143,3.657143 5.12,8.411429 5.12,13.653334 0,5.241905 -1.70667,9.996191 -5.12,13.775238 -3.16953,3.535239 -7.43619,5.36381 -11.94667,5.36381 -4.38857,0 -8.53333,-1.828571 -11.70286,-5.36381 -3.41333,-3.779047 -5.2419,-8.533333 -5.2419,-13.775238 z"
             inkscape:connector-curvature="0" />
          <path
             id="path1119"
             style="font-style:normal;font-variant:normal;font-weight:bold;font-stretch:normal;font-family:Aventura;-inkscape-font-specification:'Aventura Bold';stroke:#000000;stroke-opacity:1"
             d="m 510.06576,109.01783 h 13.5 l -9.25,12.41667 h -8 z M 537.48242,40.809493 V 53.97616 q -5.125,-2.291666 -10,-3.458333 -4.875,-1.166667 -9.20833,-1.166667 -5.75,0 -8.5,1.583334 -2.75,1.583333 -2.75,4.916666 0,2.5 1.83333,3.916667 1.875,1.375 6.75,2.375 l 6.83334,1.375 q 10.375,2.083334 14.75,6.333334 4.375,4.25 4.375,12.083333 0,10.291667 -6.125,15.333334 -6.08334,5.000002 -18.625,5.000002 -5.91667,0 -11.875,-1.125 -5.95834,-1.125 -11.91667,-3.333335 V 84.267828 q 5.95833,3.166667 11.5,4.791667 5.58333,1.583333 10.75,1.583333 5.25,0 8.04167,-1.75 2.79166,-1.75 2.79166,-5 0,-2.916667 -1.91666,-4.5 -1.875,-1.583334 -7.54167,-2.833334 l -6.20833,-1.375 q -9.33334,-2 -13.66667,-6.375 -4.29167,-4.375 -4.29167,-11.791667 0,-9.291667 6,-14.291667 6,-5 17.25,-5 5.125,0 10.54167,0.791667 5.41667,0.75 11.20833,2.291666 z"
             inkscape:connector-curvature="0" />
          <path
             id="path1121"
             style="font-style:normal;font-variant:normal;font-weight:bold;font-stretch:normal;font-family:Aventura;-inkscape-font-specification:'Aventura Bold';stroke:#000000;stroke-opacity:1"
             d="M 568.94695,87.528066 V 47.421398 h 4.99809 v -12.8 h -23.28381 v 12.8 h 4.63238 v 40.106668 h -4.99809 v 13.287624 h 23.77143 V 87.528066 Z"
             inkscape:connector-curvature="0" />
          <path
             id="path1123"
             style="font-style:normal;font-variant:normal;font-weight:bold;font-stretch:normal;font-family:Aventura;-inkscape-font-specification:'Aventura Bold';stroke:#000000;stroke-opacity:1"
             d="m 581.03459,86.918542 h -1.82858 l -0.24381,13.531428 54.36953,0.85333 0.36571,-13.653329 -39.00952,-0.731429 V 75.703304 h 24.25905 V 62.04997 H 594.68792 V 50.103303 l 39.00952,-0.731429 -0.36571,-13.653333 -54.36953,0.975238 0.24381,13.775238 1.82858,-0.121904 z"
             inkscape:connector-curvature="0" />
        </g>
        <path
           inkscape:connector-curvature="0"
           style="opacity:0.98000004;fill:#000000;fill-opacity:1;stroke:none;stroke-width:0.26458332;stroke-opacity:1"
           d="m 210.97756,35.451864 c -1.02605,0 -1.85208,0.826029 -1.85208,1.852084 v 22.754167 c 0,1.026054 0.82603,1.852083 1.85208,1.852083 h 22.75417 c 1.02605,0 1.85208,-0.826029 1.85208,-1.852083 V 37.303948 c 0,-1.026055 -0.82603,-1.852084 -1.85208,-1.852084 z m 7.61246,2.612245 c 0.79926,0 1.4366,0.199816 1.91203,0.599448 0.47542,0.399629 0.71313,0.933619 0.71313,1.601967 0,0.31695 -0.0603,0.618395 -0.18087,0.904339 -0.11713,0.282497 -0.33245,0.616672 -0.64595,1.002521 -0.0861,0.09991 -0.36001,0.389297 -0.82166,0.868164 -0.46164,0.475426 -1.11276,1.14205 -1.95337,1.99988 h 3.64319 v 0.878498 h -4.89892 v -0.878498 c 0.39618,-0.409967 0.93534,-0.959459 1.61747,-1.648479 0.68557,-0.692465 1.11621,-1.138605 1.29191,-1.338418 0.33417,-0.375518 0.56672,-0.692465 0.69763,-0.950847 0.13436,-0.261829 0.20154,-0.518488 0.20154,-0.76998 0,-0.409965 -0.1447,-0.74414 -0.43408,-1.002522 -0.28594,-0.258384 -0.65974,-0.387574 -1.12138,-0.387574 -0.32729,0 -0.67352,0.05685 -1.0387,0.170532 -0.36173,0.113689 -0.74931,0.285943 -1.16272,0.516765 v -1.054201 c 0.4203,-0.168809 0.81305,-0.296277 1.17823,-0.382404 0.36517,-0.08613 0.69935,-0.12919 1.00252,-0.129191 z m 7.09517,0 c 0.86472,0 1.52446,0.342786 1.97921,1.028361 0.4582,0.682128 0.6873,1.674315 0.6873,2.976562 0,1.2988 -0.2291,2.290988 -0.6873,2.976563 -0.45475,0.682128 -1.11449,1.023194 -1.97921,1.023194 -0.86472,0 -1.52617,-0.341066 -1.98437,-1.023194 -0.45475,-0.685575 -0.68213,-1.677763 -0.68213,-2.976563 0,-1.302247 0.22738,-2.294434 0.68213,-2.976562 0.4582,-0.685575 1.11965,-1.028361 1.98437,-1.028361 z m 0,0.826823 c -0.53743,0 -0.94223,0.265271 -1.21439,0.795816 -0.26872,0.5271 -0.40308,1.321194 -0.40308,2.382284 0,1.057646 0.13436,1.85174 0.40308,2.382285 0.27216,0.527098 0.67696,0.790649 1.21439,0.790649 0.54088,0 0.94568,-0.263551 1.2144,-0.790649 0.27216,-0.530545 0.40824,-1.324639 0.40824,-2.382285 0,-1.06109 -0.13608,-1.855184 -0.40824,-2.382284 -0.26872,-0.530545 -0.67352,-0.795816 -1.2144,-0.795816 z m 0,12.402343 c 0.76826,0 1.37115,0.179144 1.80868,0.537435 0.43752,0.358291 0.65629,0.845772 0.65629,1.462442 0,0.440973 -0.12575,0.814766 -0.37724,1.121381 -0.24805,0.306612 -0.59428,0.515041 -1.0387,0.625284 0.50299,0.117134 0.89401,0.346232 1.17306,0.687295 0.2825,0.341067 0.42375,0.757923 0.42375,1.250572 0,0.747585 -0.2291,1.321194 -0.6873,1.720824 -0.45475,0.399631 -1.1076,0.599447 -1.95854,0.599447 -0.85094,0 -1.5055,-0.199816 -1.9637,-0.599447 -0.45475,-0.39963 -0.68213,-0.973239 -0.68213,-1.720824 0,-0.492649 0.14125,-0.909505 0.42375,-1.250572 0.28249,-0.341063 0.67523,-0.570161 1.17822,-0.687295 -0.44787,-0.110242 -0.79754,-0.318672 -1.04903,-0.625284 -0.24805,-0.306615 -0.37207,-0.680408 -0.37207,-1.121381 0,-0.61667 0.21876,-1.104151 0.65629,-1.462442 0.44097,-0.358291 1.04386,-0.537435 1.80867,-0.537435 z m -7.09517,0.139526 h 1.04386 v 6.836793 h 1.70532 v 0.878499 h -4.44417 v -0.878499 h 1.70532 v -5.885947 l -1.85518,0.37207 v -0.950846 z m 7.09517,0.687297 c -0.4513,0 -0.80271,0.111966 -1.0542,0.335897 -0.24804,0.223932 -0.37207,0.535712 -0.37207,0.935344 0,0.399629 0.12403,0.711412 0.37207,0.935342 0.25149,0.223932 0.6029,0.335899 1.0542,0.335899 0.44786,0 0.79754,-0.111967 1.04903,-0.335899 0.25494,-0.22393 0.38241,-0.535713 0.38241,-0.935342 0,-0.399632 -0.12747,-0.711412 -0.38241,-0.935344 -0.25149,-0.223931 -0.60117,-0.335897 -1.04903,-0.335897 z m 0,3.364135 c -0.49609,0 -0.88711,0.132638 -1.17305,0.397909 -0.2825,0.265272 -0.42375,0.630452 -0.42375,1.095542 0,0.465087 0.14125,0.830268 0.42375,1.095539 0.28594,0.265271 0.67696,0.39791 1.17305,0.39791 0.49609,0 0.88711,-0.132639 1.17306,-0.39791 0.28594,-0.268716 0.42891,-0.633897 0.42891,-1.095539 0,-0.46509 -0.14297,-0.83027 -0.42891,-1.095542 -0.2825,-0.265271 -0.67352,-0.397909 -1.17306,-0.397909 z"
           id="rect858-1-2" />
        <path
           style="fill:#000000;stroke-width:0.33078054"
           d="m 23.066478,38.097684 c -4.41791,0 -8.004848,3.533781 -8.104414,7.928197 -0.0025,-0.0013 -0.0062,-10e-4 -0.0088,-10e-4 -0.0025,0.03963 0.0041,0.07988 0.0041,0.119888 -3.24e-4,0.02213 -0.0041,0.04453 -0.0041,0.06666 0,0.08076 0.0099,0.158515 0.0124,0.238228 0.09126,5.271979 6.050649,10.834664 8.101831,12.814721 5.760532,-4.670288 7.437398,-9.002136 7.921998,-11.311972 0.0175,-0.08101 0.03318,-0.161841 0.04806,-0.242877 0.04663,-0.248753 0.07879,-0.471818 0.101285,-0.663009 0,-0.0025 0.001,-0.0047 0.001,-0.0072 0.06051,-0.533882 0.04134,-0.828374 0.04134,-0.828374 l -10e-4,5.19e-4 c 0,-4.481409 -3.632634,-8.113718 -8.113718,-8.113718 z m -0.02429,4.431255 c 0.06855,-0.0058 0.148254,0.01463 0.228926,0.0956 l 4.240051,4.261236 1.096057,1.084689 c 0.01192,0.01183 0.154512,0.148521 0.154512,-0.0026 v -0.493492 c 0.0012,-0.07257 0.0259,-0.350882 0.319362,-0.350882 h 0.04702 v -5.16e-4 c 0.07079,0.0018 0.290422,0.03656 0.290422,0.406177 v 1.243852 0.464052 0.20774 c 0,0 -2.01e-4,0.454944 -0.346749,0.435632 h -0.0186 c -0.266623,0 -0.289957,-0.235281 -0.291457,-0.306441 V 49.112 c 0,-0.220094 -0.13901,-0.360701 -0.13901,-0.360701 l -0.426331,-0.42168 c -0.258103,-0.25509 -0.276984,5.16e-4 -0.276984,5.16e-4 v 1.195276 c -0.002,0.08927 -0.03704,0.355534 -0.39791,0.355534 h -2.199349 -0.03462 c -0.448347,0 -0.556038,-0.345199 -0.556038,-0.345199 L 23.135206,45.07762 c -1.96e-4,-1.51e-4 -5.16e-4,-4.31e-4 -5.16e-4,-0.001 -0.07794,-0.216914 -0.175702,0 -0.175702,0 h -5.16e-4 l -1.574064,4.501017 c -0.0044,0.01352 -0.105844,0.303342 -0.497128,0.303342 h -0.119888 -2.233456 c -0.329211,0 -0.360752,-0.263244 -0.362251,-0.349334 v -1.363224 c 0,-0.107002 -0.08947,-0.02987 -0.114722,-0.0062 l -0.533818,0.528135 c 0,0 -0.148311,0.141724 -0.148311,0.455269 v 0.336931 c 0,0.366249 -0.233232,0.397441 -0.295072,0.398941 h -0.06615 c -0.295059,0 -0.295073,-0.394808 -0.295073,-0.394808 v -0.766397 -0.711583 -0.567926 c 0,-0.322919 0.318327,-0.316778 0.318327,-0.316778 h 0.07183 c 0.06362,0.0012 0.266134,0.02674 0.266134,0.307475 v 0.477491 c 0,0 0.0018,0.159967 0.163298,5.19e-4 l 0.753959,-0.745691 c 0.01413,-0.01909 0.02827,-0.03755 0.04082,-0.05168 l 0.05374,-0.05374 4.456574,-4.433837 c 0.002,-0.0022 0.0847,-0.08586 0.198956,-0.0956 z"
           id="path1911"
           inkscape:connector-curvature="0" />
        <g
           clip-path="none"
           id="flowRoot1082"
           style="font-style:normal;font-weight:normal;font-size:40px;line-height:1.25;font-family:sans-serif;letter-spacing:0px;word-spacing:0px;fill:#000000;fill-opacity:1;stroke:none"
           transform="matrix(0.26458333,0,0,0.26458333,15.276856,-123.62914)"
           aria-label="Â">
          <path
             sodipodi:nodetypes="ccccccccccc"
             inkscape:connector-curvature="0"
             id="path1090"
             style="font-style:normal;font-variant:normal;font-weight:bold;font-stretch:normal;font-size:64px;font-family:'Open Sans';-inkscape-font-specification:'Open Sans Bold'"
             d="m 197.92383,601.84972 c -3.27083,-1.9375 -5.70833,-3.77083 -7.3125,-5.5 -1.625,1.6875 -4.01042,3.52083 -7.15625,5.5 h -6.34375 v -0.84375 c 3.9375,-3.9375 6.60417,-7.07292 8,-9.40625 h 11.15625 c 0.64583,1.08333 1.76042,2.5625 3.34375,4.4375 1.60417,1.85417 3.15625,3.51042 4.65625,4.96875 v 0.84375 z" />
        </g>
      </g>
    </g>
  </g>
</svg>
