<?xml version="1.0" encoding="UTF-8" standalone="no"?>
<!-- Created with Inkscape (http://www.inkscape.org/) -->

<svg
   xmlns:dc="http://purl.org/dc/elements/1.1/"
   xmlns:cc="http://creativecommons.org/ns#"
   xmlns:rdf="http://www.w3.org/1999/02/22-rdf-syntax-ns#"
   xmlns:svg="http://www.w3.org/2000/svg"
   xmlns="http://www.w3.org/2000/svg"
   xmlns:sodipodi="http://sodipodi.sourceforge.net/DTD/sodipodi-0.dtd"
   xmlns:inkscape="http://www.inkscape.org/namespaces/inkscape"
   width="3200"
   height="1800"
   viewBox="0 0 3200 1800.0001"
   id="svg4187"
   version="1.1"
   inkscape:version="0.91 r13725"
   sodipodi:docname="soimii-xc-termal.svg">
  <defs
     id="defs4189" />
  <sodipodi:namedview
     id="base"
     pagecolor="#ffffff"
     bordercolor="#666666"
     borderopacity="1.0"
     inkscape:pageopacity="0.0"
     inkscape:pageshadow="2"
     inkscape:zoom="0.61775168"
     inkscape:cx="3062.949"
     inkscape:cy="807.04456"
     inkscape:document-units="px"
     inkscape:current-layer="layer2"
     showgrid="false"
     fit-margin-top="0"
     fit-margin-left="0"
     fit-margin-right="0"
     fit-margin-bottom="0"
     units="px"
     showborder="true"
     inkscape:window-width="2048"
     inkscape:window-height="801"
     inkscape:window-x="1528"
     inkscape:window-y="-8"
     inkscape:window-maximized="1" />
  <metadata
     id="metadata4192">
    <rdf:RDF>
      <cc:Work
         rdf:about="">
        <dc:format>image/svg+xml</dc:format>
        <dc:type
           rdf:resource="http://purl.org/dc/dcmitype/StillImage" />
        <dc:title />
      </cc:Work>
    </rdf:RDF>
  </metadata>
  <g
     inkscape:groupmode="layer"
     id="layer4"
     inkscape:label="Vasile"
     style="display:inline"
     sodipodi:insensitive="true">
    <g
       style="display:inline"
       id="g4271"
       transform="matrix(0.7686643,0,0,0.87635806,1748.208,982.75842)"
       inkscape:export-xdpi="76.489998"
       inkscape:export-ydpi="76.489998">
      <g
         id="g4261">
        <path
           style="display:inline;opacity:1;fill:#000000;fill-opacity:1;fill-rule:nonzero;stroke:#000000;stroke-width:2;stroke-linejoin:miter;stroke-miterlimit:4;stroke-dasharray:none;stroke-dashoffset:0;stroke-opacity:1"
           d="m 625.78126,562.12784 c -1.88635,6.13658 -5.0778,11.4901 -12.14218,14.51987 l -18.00156,-0.3239 C 593.73051,551.11002 577.07405,505.65012 567.05625,486.61352 529.58968,421.45536 481.44572,375.64996 427.34375,340.64347 375.05888,313.46344 321.57914,289.86803 261.0612,287.38721 c -54.05803,-6.71458 -105.0467,9.09867 -155.98308,38.80313 50.68355,-31.01216 104.13305,-56.16077 172.39688,-59.25131 49.79816,-4.24047 87.25589,5.91622 124.86875,15.89193 68.60402,16.32066 112.84873,54.99742 158.86068,95.05313 74.77915,88.40024 68.9091,136.41347 64.57683,184.24375 z"
           id="path4250"
           inkscape:connector-curvature="0"
           sodipodi:nodetypes="ccccccccccc" />
        <g
           style="display:inline"
           id="g4255">
          <path
             sodipodi:nodetypes="ccccccc"
             inkscape:connector-curvature="0"
             id="path4253"
             d="m 105.07813,325.99502 c -21.886774,18.02514 -36.622483,37.25135 -48.632817,56.83593 l 19.531249,-0.58594 c 7.121127,-1.3431 11.118696,-5.11862 19.921876,-12.49999 L 139.0625,337.71376 c 26.41991,-16.81041 53.93389,-25.52463 81.64063,-32.8125 33.00196,-9.79497 69.24438,-6.95213 104.6875,-7.22656"
             style="fill:none;fill-rule:evenodd;stroke:#000000;stroke-width:1px;stroke-linecap:butt;stroke-linejoin:miter;stroke-opacity:1" />
        </g>
      </g>
      <path
         sodipodi:nodetypes="cccccccccccccc"
         inkscape:connector-curvature="0"
         id="path4266"
         d="m 272.36329,825.89734 c -4.40987,2.12283 -9.12721,4.7991 -12.30307,4.70073 -1.5297,2.59673 -3.82938,4.6518 -8.57636,4.98522 -6.28163,-1.35384 -12.7118,-1.84289 -18.20887,-7.76419 -3.33791,-2.09786 -4.63181,-8.79475 -5.93743,-15.46525 -2.51064,-7.15771 -3.41448,-13.85633 -4.1294,-20.50097 0.7472,-2.62156 1.66683,-2.48422 2.67379,-0.94957 3.38006,2.28651 7.09551,5.32766 9.50147,5.42245 l 7.57884,2.33874 c 10.07056,7.23926 15.58512,4.0377 20.26272,-1.08189 7.35815,5.11431 14.58047,8.59867 21.67821,10.58811 2.31835,-0.11994 3.40361,2.22631 4.17246,5.20536 -1.07825,3.31172 -0.99442,7.78551 -3.45853,9.71137 -3.97244,1.86815 -6.65902,6.42489 -13.25383,2.80989 z"
         style="opacity:1;fill:#000000;fill-opacity:1;fill-rule:nonzero;stroke:#000000;stroke-width:1;stroke-linejoin:miter;stroke-miterlimit:4;stroke-dasharray:none;stroke-dashoffset:0;stroke-opacity:1" />
      <path
         sodipodi:nodetypes="ccccccccccccccccccccccccccc"
         inkscape:connector-curvature="0"
         id="path4269"
         d="m 228.51562,792.69424 c -1.57774,-3.04033 -3.00323,-8.46535 -2.73437,-12.89063 1.55382,-5.06929 3.91387,-10.24297 7.12891,-15.52734 1.13928,-3.1901 -0.75182,-6.10472 3.41797,-9.57032 l 2.53906,-0.78125 c -1.10522,3.83803 -0.68891,3.75408 -0.29301,4.58985 l 3.02735,0.0977 c 3.8818,-0.24085 -3.88716,3.59164 -3.8086,6.54296 l -4.58984,13.28125 c 2.90896,1.20489 4.25051,1.2793 6.15234,1.75781 l 2.53906,0.6836 -0.29297,-2.34375 c -0.80419,-2.50651 -0.3279,-5.01302 0.6836,-7.51953 3.67838,-1.12063 7.35677,-2.32989 11.03515,-1.17188 4.38776,3.37231 3.40309,4.95381 3.32032,6.83594 l -2.63672,4.19922 c 0.91865,1.10543 1.86854,2.20239 1.66015,3.61328 -3.25224,2.16788 -4.21442,1.39139 -5.76171,1.36719 l 0.29296,1.36718 c 6.63439,1.96956 11.98738,5.91975 16.89454,9.86329 l 7.03125,-8.39844 c -0.0587,-2.07197 0.46468,-3.94862 2.05078,-5.46875 2.36081,-1.97383 3.2913,-1.54066 4.49218,-1.5625 2.2537,3.14698 0.73994,3.46837 1.07422,5.17578 l -7.51953,12.98828 -7.32422,9.08204 z"
         style="fill:none;fill-rule:evenodd;stroke:#000000;stroke-width:1px;stroke-linecap:butt;stroke-linejoin:miter;stroke-opacity:1" />
    </g>
  </g>
  <g
     inkscape:groupmode="layer"
     id="layer5"
     inkscape:label="Florin"
     style="display:inline"
     sodipodi:insensitive="true">
    <g
       style="display:inline"
       id="g4342"
       transform="matrix(-1.4412615,0,0,1.2508157,602.90043,-204.63296)"
       inkscape:export-xdpi="76.489998"
       inkscape:export-ydpi="76.489998">
      <path
         sodipodi:nodetypes="ccccccccccsccc"
         inkscape:connector-curvature="0"
         id="path4334"
         d="m -342.58926,268.75739 c -5.92976,-12.5676 -11.53481,-25.66284 -25.5654,-25.0666 -10.36518,8.1656 -20.73035,19.44175 -31.09553,39.00985 l -15.60667,21.52571 -25.91278,4.29863 c -4.11153,-11.54029 -7.92782,-23.18265 -11.82921,-34.79504 l -4.41801,-17.08005 4.41509,-7.67584 c 29.50198,-10.03041 58.46399,-15.99369 83.85233,-17.29377 35.46036,1.98691 32.13802,51.04996 38.27995,73.12865 0.43304,23.26144 -1.84515,38.24575 -3.36874,51.11288 -2.92115,24.66986 -7.1706,35.42544 -8.78703,36.471 8.942,-23.80522 6.82899,-47.61043 6.87908,-71.41565 0.48384,-17.40659 -3.23457,-34.81318 -6.84308,-52.21977 z"
         inkscape:transform-center-y="-0.33243046"
         inkscape:transform-center-x="0.095891548"
         style="opacity:1;fill:#000000;fill-opacity:1;fill-rule:nonzero;stroke:#000000;stroke-width:1;stroke-linejoin:miter;stroke-miterlimit:4;stroke-dasharray:none;stroke-dashoffset:0;stroke-opacity:1" />
      <path
         sodipodi:nodetypes="cccc"
         inkscape:connector-curvature="0"
         id="path4337"
         d="m -425.39063,305.87783 c 14.22031,26.90625 28.97952,70.51863 43.70465,113.07409 5.29615,1.69684 14.74453,-1.10501 22.19656,-1.74393 7.74931,-6.27886 12.19279,-15.53821 17.04737,-25.25456"
         style="fill:none;fill-rule:evenodd;stroke:#000000;stroke-width:1px;stroke-linecap:butt;stroke-linejoin:miter;stroke-opacity:1" />
      <path
         sodipodi:nodetypes="cccccccccccccccccccccccccccccc"
         inkscape:connector-curvature="0"
         id="path4339"
         d="m -394.72657,559.00281 c -4.97576,-5.52122 -8.30482,-11.28101 -7.59933,-18.94146 l -0.15495,-8.37747 8.08125,5.88709 c 1.64326,-2.358 3.40664,-2.63846 5.1433,-3.3811 -2.33722,2.30687 -4.58346,4.58948 -5.00588,6.38574 -0.0438,2.89779 1.68973,5.97331 2.83782,8.99028 0.46895,3.46087 6.98628,-7.6458 10.55267,-11.22456 0.65544,-1.24669 1.96652,-2.71192 1.56828,-3.60738 -0.85799,-0.0252 -1.55897,-0.67836 -2.77742,0.73833 l -3.75398,4.49809 -2.97273,2.83793 c -3.63287,1.87376 2.50398,-4.4244 0.93352,-8.92965 l 1.69823,-1.90282 c -0.97263,-1.98152 -2.95943,-3.81463 1.16111,-6.54149 2.85302,-1.61825 5.30599,-0.99622 7.50877,1.02687 0.54964,1.24931 1.46669,2.49862 1.04712,3.74793 -0.41889,1.85744 -0.0894,4.27619 -1.93141,5.06628 -2.45158,0.96467 -1.50108,3.80047 -1.54077,6.09168 l 1.24243,1.25769 1.63575,1.42753 c 1.25498,0.60575 1.20413,-1.21362 1.63576,-2.13693 0.76709,-0.49714 1.42193,-0.32075 1.92872,0.74393 -0.32732,0.8578 -1.17966,1.27106 -0.12206,2.01345 4.07504,1.5036 7.0978,3.71767 9.09437,7.29973 l 25.85206,15.98762 c 0.9455,2.77416 1.82506,5.56481 0.73091,8.84889 -5.81822,3.75862 -9.35653,3.83906 -10.34731,0.85799 -11.65437,-3.22081 -24.44477,-7.29363 -34.22189,-9.1065 -7.10498,-1.41828 -11.36819,-4.49426 -12.22434,-9.55769 z"
         inkscape:transform-center-y="0.036398707"
         inkscape:transform-center-x="0.1099295"
         style="opacity:1;fill:#000000;fill-opacity:1;fill-rule:nonzero;stroke:none;stroke-width:1;stroke-linejoin:miter;stroke-miterlimit:4;stroke-dasharray:none;stroke-dashoffset:0;stroke-opacity:1" />
    </g>
  </g>
  <g
     inkscape:label="Dan"
     inkscape:groupmode="layer"
     id="layer1"
     transform="translate(708.28528,442.67984)"
     style="display:inline"
     sodipodi:insensitive="true">
    <g
       transform="translate(387.07253,176.2626)"
       style="display:inline"
       id="g4372"
       inkscape:export-xdpi="76.489998"
       inkscape:export-ydpi="76.489998">
      <g
         id="g4365">
        <path
           style="opacity:1;fill:#000000;fill-opacity:1;fill-rule:nonzero;stroke:none;stroke-width:1;stroke-linejoin:miter;stroke-miterlimit:4;stroke-dasharray:none;stroke-dashoffset:0;stroke-opacity:1"
           inkscape:transform-center-x="0.31468308"
           inkscape:transform-center-y="-0.22094621"
           d="m -359.72517,-92.825079 c -46.4778,23.026911 -74.01495,51.35958 -105.09475,86.0189888 -16.80851,22.2217852 -34.29249,44.4435712 -48.13071,66.6653562 -17.08608,28.34459 -36.65411,84.032344 -51.48227,88.904094 -12.13408,-1.3571 -25.41625,-0.41802 -36.40225,-4.0713 9.54791,-84.694911 21.56741,-172.568107 107.20685,-230.551535 22.59247,-15.296565 66.01876,-26.384815 89.71426,-29.903345 92.77293,-3.48534 166.47272,-0.59902 157.93122,88.393978 l -4.04624,13.743498 c 2.34733,-47.823205 -12.09863,-57.622905 -25.78475,-71.876057 -23.5151,-18.069029 -60.55696,-15.042799 -83.91136,-7.323678 z"
           id="path4360"
           inkscape:connector-curvature="0"
           sodipodi:nodetypes="cccccsccccc" />
        <path
           style="fill:none;fill-rule:evenodd;stroke:#000000;stroke-width:1px;stroke-linecap:butt;stroke-linejoin:miter;stroke-opacity:1"
           d="m -367.77344,-89.825301 c 17.74967,8.7981 34.65457,21.027688 48.24219,37.109375 11.97992,18.635975 21.70319,37.554029 25.39063,57.2265632 l 32.32422,0.097656 c 7.00856,-6.6080729 11.09008,-14.8734272 12.38068,-21.4815002"
           id="path4363"
           inkscape:connector-curvature="0"
           sodipodi:nodetypes="ccccc" />
      </g>
      <path
         sodipodi:nodetypes="cccccccccccccccccccccccccccccccccccc"
         inkscape:connector-curvature="0"
         id="path4369"
         d="m -353.12499,375.21377 c -4.345,-0.38722 -8.88769,-1.56521 -12.75025,-0.0227 -6.32573,0.9774 -9.15301,-0.52073 -16.04078,-2.62137 l -9.16647,-6.11917 -11.89072,-10.18857 c -4.4645,-7.43436 -3.73787,-8.2356 -3.70479,-9.92305 -1.62446,-4.22488 3.7715,-1.42934 5.86323,-1.93803 l 0.66296,5.05208 c 1.45885,4.29429 3.59047,6.12175 5.82018,7.58952 2.5911,1.25989 5.1822,1.57035 7.7733,1.53483 1.79753,-0.006 2.13763,-2.56324 2.98814,-4.22689 l 1.81627,-11.94173 c -0.95947,-2.81181 -2.04292,-2.54917 -4.04311,0.36295 l -1.50404,6.61296 c -4.33211,0.72668 -7.20287,-0.56469 -6.09389,-7.35189 l -5.80092,1.43717 5.52514,-4.34896 4.64622,0.33853 c 1.13679,-0.58425 0.7337,-1.52179 1.03295,-2.29819 -3.22565,-0.0646 -4.4731,-1.8248 -5.94397,-3.39349 -1.51629,-1.66982 -1.34273,-3.62129 -1.35413,-5.54193 1.14367,-2.2405 2.28735,-2.97929 3.43102,-3.97943 4.80692,-0.91549 6.09194,0.63436 8.50916,1.39166 1.67419,2.12132 1.83031,4.24263 2.26672,6.36395 l -1.2489,3.92255 1.58313,-0.17901 2.85266,1.09051 8.62452,-2.35489 5.92092,-6.36124 c 4.16498,-15.09268 7.73013,-2.87489 1.76457,4.54888 l -2.77326,3.86186 c -1.9674,3.00738 -0.38217,2.19269 2.00293,3.78025 l 19.66973,10.94127 24.6009,11.80619 c 0.72319,7.95257 -2.08923,10.71958 -5.20604,13.04013 z"
         inkscape:transform-center-y="-0.051165635"
         inkscape:transform-center-x="0.17052099"
         style="opacity:1;fill:#000000;fill-opacity:1;fill-rule:nonzero;stroke:none;stroke-width:1;stroke-linejoin:miter;stroke-miterlimit:4;stroke-dasharray:none;stroke-dashoffset:0;stroke-opacity:1" />
    </g>
  </g>
  <g
     inkscape:groupmode="layer"
     id="layer3"
     inkscape:label="Ceci"
     style="display:inline"
     sodipodi:insensitive="true">
    <g
       style="display:inline"
       id="g4313"
       transform="matrix(-0.88000063,0,0,0.90364995,2256.6881,134.54836)"
       inkscape:export-xdpi="76.489998"
       inkscape:export-ydpi="76.489998">
      <g
         id="g4297">
        <path
           style="opacity:1;fill:#000000;fill-opacity:1;fill-rule:nonzero;stroke:#000000;stroke-width:1;stroke-linejoin:miter;stroke-miterlimit:4;stroke-dasharray:none;stroke-dashoffset:0;stroke-opacity:1"
           inkscape:transform-center-x="0.31858212"
           inkscape:transform-center-y="0.87998946"
           d="m 620.70313,426.19033 -21.95089,1.12714 c 2.65357,-33.16268 -4.55176,-41.45342 -8.45502,-62.84488 -18.21673,-47.9595 -56.3403,-84.3496 -88.42262,-124.00316 -52.535,-49.57393 -100.6908,-67.61772 -148.07868,-80.13245 -37.88269,-1.62529 -55.9512,-18.22129 -136.93686,12.72011 -24.54175,6.90438 -48.65288,29.75078 -69.18778,49.61613 2.64835,-6.5558 8.91781,-17.99787 16.72607,-26.18335 7.5896,-7.95625 18.37544,-15.16939 33.2582,-25.66422 34.44532,-16.6455 68.89065,-30.44103 103.33597,-34.67324 25.99734,-6.26994 47.80554,-5.9829 74.02102,-5.44146 27.70811,-2.04224 47.05056,4.28117 67.80583,9.19177 28.25388,5.19732 46.43008,15.43349 66.82173,24.56193 55.66259,22.04513 75.2669,52.23245 99.98933,81.26406 30.9154,40.00933 50.36404,81.3677 45.96478,125.5317 -7.78883,19.66231 -14.37544,41.14152 -34.89108,54.92992 z"
           id="path4292"
           inkscape:connector-curvature="0"
           sodipodi:nodetypes="cccccccscccccccc" />
        <path
           style="fill:none;fill-rule:evenodd;stroke:#000000;stroke-width:1px;stroke-linecap:butt;stroke-linejoin:miter;stroke-opacity:1"
           d="m 148.11102,221.56985 -11.58758,30.10876 30.53577,0.55936 c 11.72254,-6.66635 22.25598,-21.00645 30.10876,-30.24686 31.83654,-31.20438 68.29761,-45.45215 106.73828,-52.44141 l 50.47578,-9.08117"
           id="path4295"
           inkscape:connector-curvature="0"
           sodipodi:nodetypes="cccccc" />
      </g>
      <g
         id="g4309">
        <path
           transform="matrix(4.620034,0,0,5.9448831,-922.74354,-2945.4276)"
           style="opacity:1;fill:#000000;fill-opacity:1;fill-rule:nonzero;stroke:none;stroke-width:1.0000459;stroke-linejoin:miter;stroke-miterlimit:4;stroke-dasharray:none;stroke-dashoffset:0;stroke-opacity:1"
           inkscape:transform-center-x="-0.0598126"
           inkscape:transform-center-y="0.07695373"
           d="m 275.74111,603.7526 -4.26921,0.65426 c -1.2649,0.17583 -2.44076,0.22882 -3.68746,0.0549 l -0.97548,-0.54334 -0.71333,-0.85903 -0.35484,-1.05871 -0.42669,-1.02248 -0.44578,-1.25376 0.22158,-1.46325 c 1.1457,-1.34843 2.05149,-0.4595 2.9645,0.36208 l 0.57733,-0.81823 3.36046,1.35378 -2.8477,-0.727 c -0.44433,0.28456 -0.61305,0.56912 -0.49939,0.85369 0.51858,1.0992 1.50292,1.61927 2.40023,2.24756 l 0.99526,-0.0756 1.17461,-2.02698 3.56208,1.54727 c 0.36301,0.19985 0.37155,0.73027 0.34221,1.29602 -0.45229,0.50407 -0.78461,1.19459 -1.37838,1.47876 z"
           id="path4304"
           inkscape:connector-curvature="0"
           sodipodi:nodetypes="cccccccccccccccccccc" />
        <path
           style="fill:none;fill-rule:evenodd;stroke:#000000;stroke-width:1px;stroke-linecap:butt;stroke-linejoin:miter;stroke-opacity:1"
           d="m 300.65849,618.70687 c -1.15089,-0.10856 -2.30178,0.39445 -3.45267,-1.79539 0.10883,-5.71427 3.46687,-10.77869 5.24806,-16.15849 l 1.51917,-3.03835 1.9335,-7.73398 c 2.27496,-1.59596 2.03416,0.8333 2.62403,1.93349 -1.35199,5.06945 -2.41286,8.44756 -3.59078,12.56772 l -0.82864,3.72889 3.86699,2.34781 2.48592,-5.10995 -2.48592,-2.20971 c -1.21748,-1.80032 -2.75318,-2.96418 -2.20971,-8.2864 1.70332,-3.35305 3.40663,-3.64414 5.10995,-4.14321 3.86823,-0.35522 7.93492,-1.07426 9.66748,2.48592 l 2.90024,7.73398 -1.79539,3.31457 -4.55752,1.24296 -0.82864,2.76213 8.83883,-0.27621 c 2.53642,1.97953 3.67471,3.95906 4.0051,5.93859 l 1.65728,7.18155 c 2.57234,-3.48632 7.02671,-8.541 7.59588,-10.35801 2.50678,-2.48161 3.15003,-1.23613 4.28131,-0.96674 l 1.24296,4.28131 -2.76214,3.86699 -1.38107,0.69053"
           id="path4307"
           inkscape:connector-curvature="0"
           sodipodi:nodetypes="cccccccccccccccccccccccccc" />
      </g>
    </g>
  </g>
  <g
     inkscape:groupmode="layer"
     id="layer2"
     inkscape:label="Anca"
     style="display:inline"
     sodipodi:insensitive="true">
    <g
       id="g4186">
      <path
         sodipodi:nodetypes="ccccccccccccccc"
         inkscape:connector-curvature="0"
         id="path4147"
         d="m 2556.7132,696.17673 c -49.0826,-9.29302 -80.3805,-11.02848 -106.4051,-8.02279 -54.9934,6.9382 -109.5158,15.95685 -162.1653,43.28907 -45.4831,27.76341 -100.0144,60.3364 -112.9652,111.60883 l -10.6884,-7.73453 c -7.0436,-17.27824 -5.9728,-30.07392 -1.9411,-41.23386 18.1329,-56.00667 64.8299,-96.56801 129.8247,-127.23524 44.0936,-17.64003 86.0376,-26.55162 126.1561,-28.05105 65.9677,-7.25956 105.7264,6.47486 144.4314,21.05332 33.8316,13.25723 64.0024,33.15023 91.4762,57.93212 26.6398,30.30389 39.7638,60.48366 50.83,92.85056 l 0.1601,17.73176 -11.2132,-7.00992 c -8.3169,-33.48037 -22.7356,-48.49526 -44.8867,-74.05719 -36.6074,-26.1147 -62.2649,-40.6329 -92.6135,-51.12108 z"
         style="opacity:1;fill:#000000;fill-opacity:1;fill-rule:nonzero;stroke:none;stroke-width:0.09972838;stroke-linejoin:miter;stroke-miterlimit:4;stroke-dasharray:none;stroke-dashoffset:0;stroke-opacity:1" />
      <path
         sodipodi:nodetypes="cccccccccc"
         inkscape:connector-curvature="0"
         id="path4189"
         d="m 2413.9264,1098.534 c -3.9081,-1.1155 -3.7753,-6.1374 -4.8195,-10.0216 -2.7158,-2.0285 -5.4317,-3.435 -8.1476,-7.5084 -1.6359,-4.5287 -0.2952,-9.4685 -0.1761,-14.2396 3.6088,4.4754 7.2615,8.9252 12.9324,12.2012 4.4203,-3.8048 5.8057,-11.2818 7.5605,-18.3118 l 4.5632,-0.645 c 3.781,5.4611 8.1057,12.0406 8.3111,21.4903 -0.4908,4.944 -0.062,10.1818 -2.5475,13.4387 -1.8164,3.6614 -9.1836,3.9689 -17.6765,3.5962 z"
         style="opacity:1;fill:#000000;fill-opacity:1;fill-rule:nonzero;stroke:none;stroke-width:0.09972838;stroke-linejoin:miter;stroke-miterlimit:4;stroke-dasharray:none;stroke-dashoffset:0;stroke-opacity:1" />
      <path
         sodipodi:nodetypes="cscccccccccccccccccccccccc"
         inkscape:connector-curvature="0"
         id="path4192"
         d="m 2406.6635,1073.9832 c -0.3478,-0.1081 1.4151,-3.5427 1.0953,-3.6644 -0.3197,-0.1217 -11.4439,-2.1194 -11.7729,-2.2366 -4.2377,-4.5643 -6.3239,-9.1286 -8.6473,-13.6928 l 0.8946,-2.3062 c -2.4044,-1.0196 -1.6324,-3.1203 -1.7146,-5.5852 2.1427,-3.1175 5.4418,-1.8377 5.4418,-1.8377 1.1557,2.3205 -0.078,4.3783 -0.2609,7.0266 l 1.8637,0.4684 4.5845,8.3958 8.2746,0.973 4.5846,-3.4232 -2.6091,-1.6216 c -2.4447,-1.8873 -1.642,-4.7904 -0.7828,-7.7112 1.5979,-3.3918 5.536,-3.8385 7.1564,-3.5673 4.3886,0.4817 6.2246,6.1978 6.2246,6.1978 0.3618,3.3517 -1.0333,4.1862 -2.2736,5.369 1.4125,0.4075 3.4206,0.3722 3.6527,1.6576 l -0.5964,2.8826 11.1073,-4.8645 c 1.4661,-3.9517 0.7194,-8.5944 3.8764,-12.0352 0.7846,-1.2434 4.2251,-0.7589 4.2251,-0.7589 -0.3354,-0.1621 1.4244,0.5489 -0.1207,3.7388 l -2.1128,7.3509 -2.9863,6.6838 -6.9444,3.8849"
         style="fill:none;fill-rule:evenodd;stroke:#000000;stroke-width:0.99728382px;stroke-linecap:butt;stroke-linejoin:miter;stroke-opacity:1" />
      <path
         sodipodi:nodetypes="ccccccc"
         inkscape:connector-curvature="0"
         id="path4194"
         d="m 2409.4987,1051.2947 c 2.8705,4.7812 -4.6329,3.2749 -5.4294,0.8664 0.595,-2.7336 -0.1341,-5.9558 3.3209,-6.268 1.6149,-0.8102 2.7395,0.962 3.9721,1.384 -0.2365,1.1435 -0.2228,2.8398 -1.3892,1.9283 -1.0919,-1.0965 -1.9476,-0.7483 -2.9076,-0.4915 0.2066,1.9203 0.9793,1.8664 2.4332,2.5808 z"
         style="opacity:1;fill:#000000;fill-opacity:1;fill-rule:nonzero;stroke:none;stroke-width:0.09972838;stroke-linejoin:miter;stroke-miterlimit:4;stroke-dasharray:none;stroke-dashoffset:0;stroke-opacity:1" />
      <path
         sodipodi:nodetypes="ccccccc"
         inkscape:connector-curvature="0"
         id="path4194-3"
         d="m 2416.8907,1051.0041 c -2.8706,4.7812 4.6329,3.2749 5.4293,0.8663 -0.595,-2.7335 0.1341,-5.9557 -3.3209,-6.2679 -1.6149,-0.8102 -2.7395,0.962 -3.9721,1.384 0.2365,1.1435 0.2228,2.8398 1.3893,1.9283 1.0918,-1.0965 1.9475,-0.7483 2.9075,-0.4915 -0.2066,1.9203 -0.9793,1.8664 -2.4331,2.5808 z"
         style="display:inline;opacity:1;fill:#000000;fill-opacity:1;fill-rule:nonzero;stroke:none;stroke-width:0.09972838;stroke-linejoin:miter;stroke-miterlimit:4;stroke-dasharray:none;stroke-dashoffset:0;stroke-opacity:1" />
    </g>
  </g>
  <g
     inkscape:groupmode="layer"
     id="layer6"
     inkscape:label="Alen"
     style="display:inline"
     sodipodi:insensitive="true">
    <g
       style="display:inline"
       id="g4230"
       transform="matrix(-1,0,0,1,1140.0017,1482.079)"
       inkscape:export-xdpi="76.489998"
       inkscape:export-ydpi="76.489998">
      <path
         sodipodi:nodetypes="cccccccccccc"
         inkscape:connector-curvature="0"
         id="path4171"
         d="m 178.58832,-42.68362 -7.04395,-7.62895 c -44.57344,-83.05641 -36.49829,-130.03482 -113.9772,-220.98536 -17.76028,-15.51793 -34.53119,-34.66353 -54.45483,-42.24917 -8.07864,-6.0305 -19.39238,-11.86395 -32.11215,-14.02685 -32.59506,-10.65732 -61.84076,-5.71737 -89.73272,14.19548 -16.194,10.57559 -24.43056,27.35302 -31.2302,51.23728 -6.90286,-47.45653 36.075,-67.59413 39.37215,-72.10781 47.53201,-33.24008 112.76096,-20.82732 182.85286,8.40045 49.76253,12.50583 85.45794,46.16386 111.72306,94.90413 28.62414,58.7347 35.8981,123.79781 16.87668,189.571 z"
         style="opacity:1;fill:#000000;fill-opacity:1;fill-rule:nonzero;stroke:#000000;stroke-width:0.1;stroke-linejoin:miter;stroke-miterlimit:4;stroke-dasharray:none;stroke-dashoffset:0;stroke-opacity:1" />
      <path
         sodipodi:nodetypes="cccc"
         inkscape:connector-curvature="0"
         id="path4174"
         d="m -149.9671,-262.30591 c 1.24817,8.0441 5.01884,15.7844 15.6119,20.71354 l 19.54984,0.18374 c 42.09548,-60.21301 79.84584,-62.20137 118.18098,-72.02572"
         style="fill:none;fill-rule:evenodd;stroke:#000000;stroke-width:1px;stroke-linecap:butt;stroke-linejoin:miter;stroke-opacity:1" />
      <path
         sodipodi:nodetypes="cccccccccccccccccccccccccccccc"
         inkscape:connector-curvature="0"
         id="path4180"
         d="m -70.88608,132.71416 c -5.55879,-4.25682 -16.95567,-7.48051 -42.44691,-12.29101 -1.87621,1.30667 -3.79714,0.48984 -7.85934,-0.38949 -5.5342,-4.48952 -8.33363,-12.66287 2.72868,-19.16468 14.75051,2.86451 29.50102,-0.49658 44.25153,-4.74117 l 6.48419,-3.19583 c -0.78816,-4.1663 0.15373,-8.33259 -2.84633,-12.49889 0.99317,-2.77606 3.09707,-1.84968 4.85583,-2.07378 0.79632,4.76739 0.64153,10.26946 2.2361,12.90818 1.33363,2.19656 2.65952,4.47046 4.2629,3.96946 l 6.39364,-1.01958 6.9653,0.53949 c -3.08082,-3.34204 -2.23377,-6.91505 -0.67418,-10.52996 2.49597,-4.53182 9.24313,-3.76303 9.6677,-3.56607 4.46035,3.65861 3.98522,7.7562 3.43286,9.49801 -1.10101,4.85421 -2.67879,4.70058 -4.10416,6.36004 l 2.13217,1.8907 11.27874,5.00885 -11.37985,-0.91565 c -4.40387,1.83184 -5.77583,3.34886 -7.2223,6.25612 l -3.16871,-9.75042 c -0.98425,-2.15486 -1.97454,-4.29522 -4.31203,-3.2023 -0.46725,0.63672 -0.51875,0.59993 -0.986,2.98206 2.16829,4.3008 3.13329,11.60979 4.69994,17.41469 5.08843,5.78974 8.72208,-3.57315 11.68651,-13.08625 l 11.45594,0.73257 c -0.17681,3.29305 -4.93111,8.76881 -7.56482,12.06186 -5.32794,4.24313 -11.17557,8.8368 -16.50352,9.77522 -3.81438,5.89996 -11.9144,8.3104 -23.46383,7.02783 z"
         style="opacity:1;fill:#000000;fill-opacity:1;fill-rule:nonzero;stroke:#000000;stroke-width:0.1;stroke-linejoin:miter;stroke-miterlimit:4;stroke-dasharray:none;stroke-dashoffset:0;stroke-opacity:1" />
    </g>
  </g>
  <g
     inkscape:groupmode="layer"
     id="layer7"
     inkscape:label="Termal"
     style="display:inline">
    <path
       sodipodi:type="spiral"
       style="display:inline;fill:none;fill-rule:evenodd;stroke:#000000;stroke-width:2;stroke-linecap:butt;stroke-linejoin:miter;stroke-miterlimit:4;stroke-dasharray:none;stroke-opacity:1"
       id="path4222"
       sodipodi:cx="-1523.3229"
       sodipodi:cy="673.19446"
       sodipodi:expansion="0.69999999"
       sodipodi:revolution="2"
       sodipodi:radius="778.67572"
       sodipodi:argument="-18.176411"
       sodipodi:t0="0.5"
       d="m -1148.5508,972.0326 c -153.706,243.9737 -489.5143,294.4374 -724.132,139.2931 -275.7207,-182.32433 -331.1075,-567.43561 -148.4128,-835.04843 208.9767,-306.110874 641.0515,-366.263087 939.9156,-157.57297 338.22341,236.17382 402.15815,708.35442 166.67613,1039.9542"
       transform="matrix(-1.1587192,-0.14342266,0.40705116,0.91340536,-417.09622,159.99389)"
       inkscape:export-xdpi="76.489998"
       inkscape:export-ydpi="76.489998" />
  </g>
</svg>
